<svg id="Capa_1" enable-background="new 0 0 512 512" height="512" viewBox="0 0 512 512" width="512" xmlns="http://www.w3.org/2000/svg"><g><path d="m393.586 439.927c-7.873 1.384-16.874 3.712-20.223 10.97-2.349 5.092-.761 11.7 3.646 15.168 4.904 3.859 12.037 3.674 17.126 7.285 6.213 4.409 8.499 13.82 15.79 16.03 3.268.991 6.784.214 10.087-.653 6.986-1.835 13.869-4.066 20.604-6.678 2.114-.82 4.351-1.789 5.553-3.712 6.004-9.603.322-33.869-10.34-38.718-9.874-4.49-32.166-1.464-42.243.308z" fill="#26a6fe"/><path d="m446.164 478.334c-1.196 1.928-3.432 2.896-5.546 3.711-4.896 1.897-9.864 3.597-14.884 5.071 1.093-.66 2.062-1.474 2.742-2.556 6.844-10.967.361-38.664-11.812-44.199-2.618-1.196-5.999-1.917-9.792-2.309 10.308-1.082 22.378-1.422 28.954 1.567 10.668 4.845 16.348 29.119 10.338 38.715z" fill="#0593fc"/><path d="m229.809 48.075-16.64 4.222c-3.914.993-7.053 3.91-8.329 7.74l-4.79 14.37c-1.613 4.84-6.142 8.104-11.244 8.104-2.945 0-5.784-1.096-7.964-3.075l-8.779-7.965c-4.577-4.153-11.578-4.092-16.082.142l-41.017 38.556c-5.482 5.153-10.343 10.927-14.487 17.206l-3.139 4.756c-9.479 14.363-22.616 25.938-38.058 33.532l-35.065 17.245c-9.109 4.48-16.357 12.015-20.479 21.291-5.043 11.346-4.977 24.309.179 35.603l38.273 83.835c2.362 5.174 2.45 11.101.243 16.343l-.769 1.826c-3.21 7.623-1.484 16.431 4.364 22.28 6.857 6.857 17.601 7.921 25.67 2.542l28.36-18.906c2.805-1.87 6.03-3.013 9.386-3.328l29.641-2.779c2.226-.209 4.348-1.043 6.12-2.406l26.163-20.126c1.403-1.079 3.029-1.83 4.76-2.198l48.768-10.376c2.986-.635 6.102-.094 8.699 1.511l55.153 34.095c3.902 2.412 8.845 2.356 12.691-.144 8.559-5.563 20.046-.977 22.42 8.951l6.694 27.992c.989 4.136 3.712 7.645 7.473 9.629l9.402 4.962c18.007 9.504 38.42 13.475 58.676 11.415 24.93-2.535 47.488-15.892 61.699-36.531l26.434-38.392c.828-1.203 1.427-2.548 1.766-3.968l15.042-62.99c2.249-9.418.493-19.346-4.849-27.422l-37.818-57.167c-3.383-5.114-7.272-9.875-11.608-14.21l-14.726-14.726c-7.849-7.849-12.708-18.195-13.737-29.248l-2.629-28.261c-.346-3.724-2.43-7.065-5.621-9.015l-12.488-7.631c-2.532-1.547-4.474-3.898-5.514-6.677l-9.473-25.295c-1.943-5.189-6.902-8.627-12.443-8.627-6.922 0-12.685 5.315-13.243 12.214l-2.445 30.188c-.095 1.174-.365 2.328-.8 3.422l-6.079 15.288c-4.515 11.354-18.344 15.662-28.508 8.88l-25.382-16.935c-7.712-5.146-10.647-15.066-6.978-23.579l6.138-14.239c1.209-2.806 1.758-5.852 1.604-8.903-.537-10.611-9.296-18.939-19.921-18.939h-21.869c-7.816 0-14.912 4.565-18.152 11.679l-1.446 3.174c-2.509 5.507-7.382 9.577-13.247 11.065z" fill="#26a6fe"/><path d="m511.04 263.04-15.039 62.989c-.34 1.423-.938 2.763-1.763 3.969l-26.438 38.396c-7.112 10.318-16.296 18.822-26.831 25.047-10.534 6.246-22.398 10.215-34.87 11.483-3.628.371-7.267.546-10.885.526 8.504-1.989 16.616-5.267 24.048-9.669 10.524-6.236 19.718-14.729 26.83-25.058l26.429-38.385c.824-1.206 1.422-2.546 1.763-3.969l15.049-62.99c2.247-9.421.495-19.347-4.855-27.428l-37.818-57.166c-3.381-5.113-7.267-9.875-11.606-14.204l-14.719-14.73c-7.854-7.844-12.709-18.193-13.74-29.253l-2.628-28.253c-.351-3.731-2.433-7.071-5.618-9.019l-12.494-7.626c-2.536-1.546-4.473-3.896-5.515-6.679l-9.473-25.295c-.557-1.505-1.371-2.855-2.402-4.02.701-1.288 1.598-2.443 2.67-3.422 2.371-2.196 5.546-3.525 8.998-3.525 5.546 0 10.504 3.443 12.452 8.627l9.473 25.295c1.041 2.783 2.979 5.133 5.515 6.679l12.482 7.628c3.195 1.958 5.278 5.298 5.618 9.019l2.628 28.263c1.031 11.05 5.896 21.399 13.74 29.242l14.73 14.73c4.329 4.339 8.225 9.091 11.606 14.214l37.818 57.166c5.34 8.071 7.092 17.997 4.845 27.418z" fill="#0593fc"/></g></svg>