<svg xmlns="http://www.w3.org/2000/svg" viewBox="0 0 85.69 85.19"><g id="Layer_1" data-name="Layer 1"><path d="M88,19.57V81.93A6.07,6.07,0,0,1,81.93,88H18.07A6.07,6.07,0,0,1,12,81.93V18.07A6.07,6.07,0,0,1,18.07,12H81.43l-10,10H26.48A4.47,4.47,0,0,0,22,26.48v47A4.47,4.47,0,0,0,26.48,78h47A4.47,4.47,0,0,0,78,73.52V29.57Z" transform="translate(-12 -2.81)"/></g><g id="Layer_2" data-name="Layer 2"><rect x="69.77" y="-1.27" width="6" height="58" transform="translate(28.92 -46.14) rotate(45)"/><path d="M95.4,3.1h0a3,3,0,0,1,3,3v1a0,0,0,0,1,0,0h-6a0,0,0,0,1,0,0v-1A3,3,0,0,1,95.4,3.1Z" transform="translate(19.55 -68.77) rotate(45)"/><polygon points="33.19 52.5 37.55 43.89 41.79 48.14 33.19 52.5"/></g></svg>