<?xml version="1.0" encoding="utf-8"?>
<!-- Generator: Adobe Illustrator 25.0.0, SVG Export Plug-In . SVG Version: 6.00 Build 0)  -->
<svg version="1.1" id="Layer_1" xmlns="http://www.w3.org/2000/svg" xmlns:xlink="http://www.w3.org/1999/xlink" x="0px" y="0px"
	 viewBox="0 0 100 100" style="enable-background:new 0 0 100 100;" xml:space="preserve">
<style type="text/css">
	.st0{fill:#414141;}
</style>
<g>
	<path class="st0" d="M20.42,92.91v2.38c2.65,1.11,12.65,4.73,29.76,4.73c17.11,0,27.1-3.62,29.76-4.73v-2.38
		c-3.86,1.48-13.71,4.52-29.76,4.52C34.15,97.43,24.29,94.4,20.42,92.91z"/>
	<path class="st0" d="M66.9,0.73c-0.98,9.71-8.89,14.78-16.72,14.78S34.45,10.44,33.48,0.73L15.64,9.64
		c4.72,11.41,4.78,39.56,4.78,40.8v39.68c2.64,1.1,12.64,5.6,29.76,5.6s27.11-4.5,29.76-5.6V50.44c0-1.23,0.06-29.39,4.78-40.8
		L66.9,0.73z M30.65,51.71L50.37,22.1l11.62,17.13l-5.32,0l-6.32-9.2L38.97,47.3l22.7,0.05l-1.45-2.12H49.13l2.94-4.37l10.9,0.04
		l6.75,10.83L30.65,51.71z"/>
	<path class="st0" d="M82.55,48.34l17.65-8.82L86.53,12.19C83.24,22.03,82.65,41.85,82.55,48.34z"/>
	<path class="st0" d="M50.18,12.92c6.54,0,13.54-4.07,14.17-12.94H36.01C36.64,8.85,43.64,12.92,50.18,12.92z"/>
	<path class="st0" d="M0.16,39.51l17.65,8.82c-0.1-6.48-0.69-26.31-3.99-36.15L0.16,39.51z"/>
</g>
</svg>
