<svg xmlns="http://www.w3.org/2000/svg" width="35.958" height="41.095" viewBox="0 0 35.958 41.095">
  <g id="Attendance" transform="translate(4.696 9.114)">
    <path id="Icon_awesome-calendar-check" data-name="Icon awesome-calendar-check" d="M34.995,12.842H.963A.963.963,0,0,1,0,11.879V8.989A3.853,3.853,0,0,1,3.853,5.137H7.705V.963A.963.963,0,0,1,8.668,0h3.211a.963.963,0,0,1,.963.963V5.137H23.116V.963A.963.963,0,0,1,24.079,0h3.211a.963.963,0,0,1,.963.963V5.137h3.853a3.853,3.853,0,0,1,3.853,3.853v2.889A.963.963,0,0,1,34.995,12.842ZM.963,15.41H34.995a.963.963,0,0,1,.963.963V37.242a3.853,3.853,0,0,1-3.853,3.853H3.853A3.853,3.853,0,0,1,0,37.242V16.374A.963.963,0,0,1,.963,15.41Zm26.751,7.7-2.261-2.279a.963.963,0,0,0-1.362-.005l-8.511,8.442-3.69-3.72a.963.963,0,0,0-1.362-.005L8.249,27.8a.963.963,0,0,0-.005,1.362l6.63,6.683a.963.963,0,0,0,1.362.005L27.709,24.473a.963.963,0,0,0,.005-1.362Z" transform="translate(-4.696 -9.114)" fill="#8ec640"/>
  </g>
</svg>
