<?xml version="1.0" encoding="UTF-8" standalone="no"?> <svg xmlns="http://www.w3.org/2000/svg" viewBox="0 0 72 72"><defs><style>.cls-1{fill:#4793eb;}.cls-2{fill:#ed5f5f;}.cls-3{fill:#fed200;}.cls-4{fill:#fd9b02;}.cls-5{fill:#ff7302;}</style></defs><title>Party</title><g id="Party"><path class="cls-1" d="M40,23a1,1,0,0,1-.556-1.832c2.607-1.738,2.817-3.837,3.06-6.268.256-2.564.547-5.47,3.94-7.732a1,1,0,0,1,1.11,1.664c-2.607,1.738-2.817,3.837-3.06,6.268-.256,2.564-.547,5.47-3.94,7.732A1,1,0,0,1,40,23Z"/><path class="cls-2" d="M51,34a1,1,0,0,1-.179-1.984c.1-.019,10.414-1.976,12.219-8.291a1,1,0,1,1,1.922.55c-2.146,7.511-13.308,9.622-13.782,9.709A1,1,0,0,1,51,34Z"/><path class="cls-3" d="M50.983,25.052l-1.686.032a.926.926,0,0,1-.888-1.243l.578-1.585-.552-1.593a.926.926,0,0,1,.908-1.229l1.685.06,1.345-1.017a.927.927,0,0,1,1.45.484l.463,1.621,1.384.965a.927.927,0,0,1-.013,1.528l-1.4.942-.49,1.614a.926.926,0,0,1-1.457.46Z"/><circle class="cls-1" cx="56.5" cy="36.5" r="1.5"/><circle class="cls-3" cx="64" cy="37" r="1"/><circle class="cls-2" cx="53" cy="11" r="1"/><circle class="cls-3" cx="62" cy="12" r="1"/><circle class="cls-3" cx="34.5" cy="14.5" r="1.5"/><circle class="cls-2" cx="36" cy="8" r="1"/><path class="cls-3" d="M22.39,18.614,53.4,49.623,12.393,64.744a4,4,0,0,1-5.137-5.138Z"/><path class="cls-4" d="M42.93,53.48,37.19,55.6A95.889,95.889,0,0,1,24.62,20.84l7.76,7.76A91.635,91.635,0,0,0,42.93,53.48Z"/><path class="cls-4" d="M30.79,57.96l-5.72,2.1A96.636,96.636,0,0,1,15.79,36.5l4.07-11.02A90.413,90.413,0,0,0,30.79,57.96Z"/><path class="cls-4" d="M18.75,62.39l-5.69,2.1A98.3,98.3,0,0,1,8.9,55.18l3.32-9.01A92.236,92.236,0,0,0,18.75,62.39Z"/><ellipse class="cls-5" cx="38.251" cy="33.747" rx="6" ry="22" transform="translate(-12.659 36.932) rotate(-45)"/></g></svg>