<svg id="Layer_1" data-name="Layer 1" xmlns="http://www.w3.org/2000/svg" viewBox="0 0 215 53"><defs><style>.cls-b3-1{fill:#fff !important;}.cls-b3-2{fill:#603134 !important;}.cls-b3-3{fill:#e1251b !important;}</style></defs><g id="Group_239" data-name="Group 239"><path id="Rectangle_26" data-name="Rectangle 26" class="cls-b3-1" d="M0,0H207a8,8,0,0,1,8,8V45a8,8,0,0,1-8,8H0V0Z"/><path id="Rectangle_26-2" data-name="Rectangle 26" class="cls-b3-2" d="M0,0H207a8,8,0,0,1,8,8V45a8,8,0,0,1-8,8H0V0Z"/><path id="Rectangle_26-3" data-name="Rectangle 26" d="M0,0H207a8,8,0,0,1,8,8V45a8,8,0,0,1-8,8H0V0Z"/><rect id="Rectangle_27" data-name="Rectangle 27" class="cls-b3-3" x="41" width="151" height="53"/></g><g id="BB_Stripes" data-name="BB Stripes"><rect id="_1" data-name="1" class="cls-b3-1" x="165.27" width="10.95" height="53"/><rect id="_2" data-name="2" class="cls-b3-1" x="143.35" width="10.95" height="53"/><rect id="_3" data-name="3" class="cls-b3-1" x="122.12" width="10.95" height="53"/><rect id="d" class="cls-b3-1" x="41" width="5.87" height="53"/><rect id="d-2" data-name="d" class="cls-b3-1" x="186.13" width="5.87" height="53"/></g></svg>
