<svg xmlns="http://www.w3.org/2000/svg" width="36" height="33.75" viewBox="0 0 36 33.75">
  <path id="Icon_awesome-briefcase-medical" data-name="Icon awesome-briefcase-medical" d="M32.625,9H27V5.625A3.376,3.376,0,0,0,23.625,2.25H12.375A3.376,3.376,0,0,0,9,5.625V9H3.375A3.376,3.376,0,0,0,0,12.375v20.25A3.376,3.376,0,0,0,3.375,36h29.25A3.376,3.376,0,0,0,36,32.625V12.375A3.376,3.376,0,0,0,32.625,9ZM13.5,6.75h9V9h-9ZM24.75,24.188a.564.564,0,0,1-.562.563H20.25v3.938a.564.564,0,0,1-.562.563H16.313a.564.564,0,0,1-.562-.562V24.75H11.813a.564.564,0,0,1-.562-.562V20.813a.564.564,0,0,1,.563-.562H15.75V16.313a.564.564,0,0,1,.563-.562h3.375a.564.564,0,0,1,.563.563V20.25h3.938a.564.564,0,0,1,.563.563Z" transform="translate(0 -2.25)" fill="#4d5059"/>
</svg>
