<svg xmlns="http://www.w3.org/2000/svg" xmlns:xlink="http://www.w3.org/1999/xlink" width="17.653" height="17.401" viewBox="0 0 17.653 17.401">
  <defs>
    <rect id="rect-1" width="17.653" height="17.401" x="0" y="0"/>
    <mask id="mask-2" maskContentUnits="userSpaceOnUse" maskUnits="userSpaceOnUse">
      <rect width="17.653" height="17.401" x="0" y="0" fill="black"/>
      <use fill="white" xlink:href="#rect-1"/>
    </mask>
  </defs>
  <g>
    <use fill="none" xlink:href="#rect-1"/>
    <g mask="url(#mask-2)">
      <path fill="rgb(243,202,62)" fill-rule="evenodd" d="M6.80047912 11.20271096l-.27084245 1.58570884c-.03691377.21679069.0533199.43525436.23336295.5646317.18032591.1290985.41977044.14638599.61678534.04461287l1.44628454-.74419851 1.44628454.74433792c.08556641.04377638.17933589.065804.27211534.065804.12149016 0 .24269746-.0375027.34495286-.11041687.18018448-.12937734.27070102-.347841.23350438-.5646317l-.27055959-1.58570884 1.16455182-1.12605683c.15925253-.153775.2159668-.38325247.1476551-.59209649-.06859456-.2087046-.25217341-.3615037-.4725246-.3935692l-1.61374014-.23589057-.7268195-1.44001993c-.09857817-.19657548-.3028061-.32107328-.52556164-.32107328-.22233125 0-.42641775.1244978-.52584451.32107328l-.72611234 1.44001993-1.61374014.23575116c-.22077549.0320655-.40350575.1848646-.47224174.3935692-.068736.20884402-.01216316.43860032.14737224.59209649l1.16511754 1.12605683z"/>
      <path fill="rgb(243,202,62)" fill-rule="evenodd" d="M13.91380614 1.84989975h1.84780884c.96626663 0 1.75291061.77500916 1.75305176 1.72792054v12.09524536c0 .95248413-.7866478 1.72790527-1.75291062 1.72790527H1.89108962c-.96640778 0-1.75291061-.77555847-1.75291061-1.72790527V3.57782029c0-.95291138.78650283-1.72792054 1.75291061-1.72792054h1.82631302V.8395543c0-.46368409.38115692-.83955384.8515625-.83955384h.13520813c.47026062 0 .8515625.37586975.8515625.83955384v1.01034545h6.5195961V.8395543c0-.46368409.38115692-.83955384.8515625-.83955384h.13506699c.4705429 0 .85184478.37586975.85184478.83955384v1.01034545zM2.11978454 15.44761704h13.41313552V6.03221177H2.11978454v9.41540527z"/>
    </g>
  </g>
</svg>
