<svg id="GBk" xmlns="http://www.w3.org/2000/svg" viewBox="0 0 95.12 45.16"><defs><style>.cls-gbk-1{fill:#0ba14b !important;}.cls-gbk-2{fill:#fff !important;}</style></defs><path d="M27.78,31.67V23.43H17.93V17.21H35.34V38.09H16.66c-.62-.09-1.15-.17-1.59-.22a10.18,10.18,0,0,1-1.49-.29c-.55-.15-1.32-.4-2.29-.76a13.51,13.51,0,0,1-3.7-2.45,12.52,12.52,0,0,1-3.47-5.49,23.45,23.45,0,0,1-1.24-7.75V19a18.25,18.25,0,0,1,.59-4.8A19.32,19.32,0,0,1,5,10.15,14.1,14.1,0,0,1,7.36,6.89a14.9,14.9,0,0,1,4-2.73Q14,2.84,19.45,2.84H35.34V9H19.45a7.76,7.76,0,0,0-5,1.49,8,8,0,0,0-2.55,4,20.53,20.53,0,0,0-.74,5.69v.54q0,5.15,1.74,8t6.6,2.89Z" transform="translate(-2.88 -2.84)"/><path d="M59.56,38.09H40.19V2.84H58.28A28.24,28.24,0,0,1,63,3.18a22.94,22.94,0,0,1,4.49,1.38,5.08,5.08,0,0,1,3.19,3.8,20.61,20.61,0,0,1,.63,4.19q0,5-5.19,7.94a11.73,11.73,0,0,1,2.94,2,7.63,7.63,0,0,1,1.81,2.58,7.91,7.91,0,0,1,.59,3.16,17.36,17.36,0,0,1-.49,3.68,5.8,5.8,0,0,1-1.74,3.26,13.15,13.15,0,0,1-2.25,1.57,13,13,0,0,1-2.9.93A20.92,20.92,0,0,1,59.56,38.09ZM58.38,9.17H47.59V17.3H58.38A6.08,6.08,0,0,0,62,16.37a3.57,3.57,0,0,0,1.27-3.09Q63.28,9.17,58.38,9.17ZM47.59,23.53v8.34H58.41a5.86,5.86,0,0,0,3.63-1,3.74,3.74,0,0,0,1.24-3.16q0-4.21-4.87-4.22Z" transform="translate(-2.88 -2.84)"/><path d="M84.41,16.89v-9h2.44V12l2.86-4.11h2.87l-3.34,4.41,3.63,4.63H89.8l-3-4.06v4.06Z" transform="translate(-2.88 -2.84)"/><path d="M77.36,3.24h4.55V5.41H80V18.63h2V20.8H77.36Z" transform="translate(-2.88 -2.84)"/><path d="M97.4,3.24V20.8H92.87V18.63h1.94V5.41H92.87V3.24Z" transform="translate(-2.88 -2.84)"/><rect class="cls-gbk-1" x="0.12" y="39.16" width="95" height="6"/><rect x="54.12" y="39.16" width="30" height="6"/><rect class="cls-gbk-2" x="60.12" y="39.16" width="3" height="6"/><rect class="cls-gbk-2" x="65.12" y="39.16" width="3" height="6"/><rect class="cls-gbk-2" x="70.12" y="39.16" width="3" height="6"/><rect class="cls-gbk-2" x="75.12" y="39.16" width="3" height="6"/></svg>
