<svg id="Layer_1" data-name="Layer 1" xmlns="http://www.w3.org/2000/svg" viewBox="0 0 663.77 663.37"><defs><style>.cls-1{fill:#e1251b;}.cls-2{fill:#1d1d1b;}.cls-3,.cls-4{fill:#fff;}.cls-3{fill-rule:evenodd;}</style></defs><title>Logo GB Wear2</title><circle class="cls-1" cx="328.93" cy="333.44" r="325"/><path class="cls-2" d="M402,665.13c114.47,0,213.62-66.82,260.49-163.48h-521C188.31,598.31,287.49,665.13,402,665.13Z" transform="translate(-70.07 -44.32)"/><g id="GB"><path id="G" class="cls-3" d="M295.76,225H373.7a7.2,7.2,0,0,1,7.2,7.22l-.08,46.27a7.19,7.19,0,0,1-7.2,7.19H279.73c-25.9,0-61.1,5.58-61.1,54.75,0,47.41,22.27,59.07,49.14,59.07,15.09,0,53.46-.44,69.39-.63a7.19,7.19,0,0,0,7.1-7.2V372.72a7.2,7.2,0,0,0-7.21-7.2l-62.18,0a7.19,7.19,0,0,1-7.2-7.22l.08-28.34a7.2,7.2,0,0,1,7.2-7.18h99.84A7.21,7.21,0,0,1,382,330V453.19a7.21,7.21,0,0,1-7.21,7.2H284.88C183.28,460.39,154,404.2,154,337.28c0-32.18,10.47-64.56,35.29-84.78C213.32,232.91,251,225,295.76,225Z" transform="translate(-70.07 -44.32)"/><path id="B" class="cls-3" d="M635.37,392c0-26-15.66-38.94-29.08-45.73-8.19-4.14-8.4-8.09-.52-12.8,11.59-6.91,24.36-20.18,24.36-46.67,0-6.53,1.33-26.5-12.07-41.45C607.13,233.2,585.72,225,551.35,225H418.92a7.21,7.21,0,0,0-7.21,7.21l.1,221a7.19,7.19,0,0,0,7.19,7.2l128.15,0c34.6,0,58.91-4.23,72.25-16.11C633.12,432.08,635.37,411.93,635.37,392ZM467,285.4a7.2,7.2,0,0,1,7.22-7.21c15.26.05,50.44.16,63.49.16,21,0,30.07,6.22,30.07,17.67,0,18.25-16.94,19.41-29.07,19.41H474.22a7.2,7.2,0,0,1-7.2-7.2Zm75,117.11H474.22a7.2,7.2,0,0,1-7.2-7.2V372.47a7.19,7.19,0,0,1,7.21-7.2c15.77.05,52.95.16,66.69.16,22,0,31.43,6.22,31.43,17.67C572.35,401.35,557.69,402.51,542,402.51Z" transform="translate(-70.07 -44.32)"/></g><path id="WHITE" class="cls-4" d="M402,707.69c-183,0-331.91-148.83-331.91-331.77S219,44.32,402,44.32s331.86,148.76,331.86,331.6S585,707.69,402,707.69Zm0-620.82c-159.56,0-289.37,129.67-289.37,289.05S242.42,665.13,402,665.13s289.3-129.76,289.3-289.21S561.5,86.87,402,86.87Z" transform="translate(-70.07 -44.32)"/><g id="WEAR"><path id="W" class="cls-4" d="M258.41,602.13H244.73a4.46,4.46,0,0,1-4.23-3L217.1,528.4a4.45,4.45,0,0,1,4.22-5.85h8.25a4.44,4.44,0,0,1,4.26,3.17l12.82,42.69a4.44,4.44,0,0,0,8.56-.18L266,525.9a4.44,4.44,0,0,1,4.3-3.35h12.92a4.45,4.45,0,0,1,4.26,3.2l12.62,43.07a4.45,4.45,0,0,0,8.55-.06l12-43a4.45,4.45,0,0,1,4.29-3.26h7.66a4.45,4.45,0,0,1,4.25,5.75L315.19,599a4.45,4.45,0,0,1-4.25,3.14H297a4.43,4.43,0,0,1-4.27-3.23l-11.38-40a4.45,4.45,0,0,0-8.59.12l-10,39.78A4.44,4.44,0,0,1,258.41,602.13Z" transform="translate(-70.07 -44.32)"/><path id="E" class="cls-4" d="M400.52,527v4.94a4.44,4.44,0,0,1-4.44,4.45h-23q-9,0-13.89,4.7a15.71,15.71,0,0,0-4.41,8.42,4.51,4.51,0,0,0,4.35,5.47h37a4.44,4.44,0,0,1,4.44,4.44v5a4.44,4.44,0,0,1-4.44,4.44H359a4.44,4.44,0,0,0-4.44,4.86q.72,6.18,3.4,9.15,3.64,4,6.8,4.76a39.08,39.08,0,0,0,8.36.72h23a4.44,4.44,0,0,1,4.44,4.44v4.94a4.44,4.44,0,0,1-4.44,4.45H372.41a57.42,57.42,0,0,1-13.56-1.38,29.47,29.47,0,0,1-20.8-19.43,52.4,52.4,0,0,1-2.83-17.48l.22-4.76a39.84,39.84,0,0,1,.89-8.42,58.29,58.29,0,0,1,2.22-7.74,31.94,31.94,0,0,1,3.09-6.42,38.71,38.71,0,0,1,5.2-6.2,20.79,20.79,0,0,1,8.3-5,50.67,50.67,0,0,1,9.14-2.15,66.19,66.19,0,0,1,8.57-.56h23.23A4.44,4.44,0,0,1,400.52,527Z" transform="translate(-70.07 -44.32)"/><path id="A" class="cls-4" d="M421.85,602.13H414a4.45,4.45,0,0,1-4.1-6.17l29.69-70.68a4.46,4.46,0,0,1,4.1-2.73h11.82a4.44,4.44,0,0,1,4.08,2.7l30.19,70.69a4.45,4.45,0,0,1-4.09,6.19h-8.8a4.44,4.44,0,0,1-4.16-2.85L467.58,586a4.45,4.45,0,0,0-4.15-2.86H435a4.46,4.46,0,0,0-4.18,2.94L426,599.19A4.46,4.46,0,0,1,421.85,602.13ZM443.74,569h10.78a4.45,4.45,0,0,0,4.13-6.09l-5.46-13.78a4.45,4.45,0,0,0-8.28,0L439.6,563A4.44,4.44,0,0,0,443.74,569Z" transform="translate(-70.07 -44.32)"/><path id="R" class="cls-4" d="M511.18,602.13h-7.83a4.44,4.44,0,0,1-4.44-4.45V527a4.44,4.44,0,0,1,4.44-4.45H540a60.92,60.92,0,0,1,6.37.34,58.3,58.3,0,0,1,7.3,1.27,15.91,15.91,0,0,1,7.58,4.43,21.45,21.45,0,0,1,5.2,8,34.93,34.93,0,0,1,1.44,10,29.71,29.71,0,0,1-1.66,10.19,20.11,20.11,0,0,1-5.31,7.68,17.5,17.5,0,0,1-4.33,2.79,4.42,4.42,0,0,0-1.9,6.24l12.91,22a4.44,4.44,0,0,1-3.83,6.7H555.4a4.44,4.44,0,0,1-3.87-2.26l-15-26.58a4.44,4.44,0,0,0-3.87-2.26H520.07a4.45,4.45,0,0,0-4.45,4.45v22.2A4.44,4.44,0,0,1,511.18,602.13Zm24.92-65.3h-16a4.44,4.44,0,0,0-4.45,4.44v11.26a4.44,4.44,0,0,0,4.45,4.44h16a43.38,43.38,0,0,0,7.58-.55,10,10,0,0,0,5.37-2.88q2-2.32,2-6.75c0-4.27-1.31-7-3.93-8.19S540.82,536.83,536.1,536.83Z" transform="translate(-70.07 -44.32)"/></g></svg>