<svg xmlns="http://www.w3.org/2000/svg" xmlns:xlink="http://www.w3.org/1999/xlink" width="49.623" height="27.142" viewBox="0 0 49.623 27.142">
  <defs>
    <linearGradient id="linear-gradient" x1="0.5" y1="0.271" x2="0.5" y2="1.271" gradientUnits="objectBoundingBox">
      <stop offset="0.108" stop-color="#2d2e83"/>
      <stop offset="0.236" stop-color="#2d4090"/>
      <stop offset="0.398" stop-color="#2955a0"/>
      <stop offset="0.55" stop-color="#2364ad"/>
      <stop offset="0.688" stop-color="#1f6db5"/>
      <stop offset="0.798" stop-color="#1d71b8"/>
    </linearGradient>
  </defs>
  <g id="Grading" transform="translate(11.164 -315.25)">
    <g id="Color" transform="translate(-11.654 315.25)">
      <path id="Path_186" data-name="Path 186" d="M23.285,25.424A7.323,7.323,0,0,1,9.508,21.967a5.077,5.077,0,0,1,.072-.907c-2.012,1.063-4.2,3.3-6.769,7.193a13.256,13.256,0,0,0,24.122-.788A38.839,38.839,0,0,1,23.285,25.424Z" transform="translate(-0.935 -8.489)" fill="url(#linear-gradient)"/>
      <path id="Path_187" data-name="Path 187" d="M50.113,4.662V18.171a1.726,1.726,0,0,1-1.164,1.636c-10.452,3.432-17.544,1.821-22.958-.824a39.61,39.61,0,0,1-3.647-2.042c-5.414-3.349-9.127-6.823-13.706-4.364-2.012,1.069-4.2,3.3-6.769,7.2A13.191,13.191,0,0,1,.49,13.9a13.027,13.027,0,0,1,.352-3.038,17.236,17.236,0,0,1,6.351-8.5A12.663,12.663,0,0,1,14.4,0c10.578,0,7.7,6.889,22,6.889,8.506,0,11.4-1.421,12.548-2.7A.672.672,0,0,1,50.113,4.662Z" fill="#1d71b8"/>
      <path id="Path_188" data-name="Path 188" d="M46.615,7.407c-11.324,0-11.891-4.3-16.869-6.107L25.8,13.286c6.351,3.1,13.753,11.891,29.894,8.011V6.523A35.727,35.727,0,0,1,46.615,7.407Z" transform="translate(-10.202 -0.524)" fill="#3c3c3b"/>
      <path id="Path_189" data-name="Path 189" d="M67.21,11.157V26.014c.836-.072,1.7-.179,2.585-.328V10.9C69.037,11.007,68.165,11.091,67.21,11.157Z" transform="translate(-26.893 -4.393)" fill="#ededed"/>
    </g>
  </g>
</svg>
