<svg id="Layer_1" data-name="Layer 1" xmlns="http://www.w3.org/2000/svg" viewBox="0 0 215 53"><defs><style>.cls-gw3b-1{fill:#01a14a !important;}.cls-gw3b-2{fill:#fff !important;}.cls-gw3b-3{fill:#14191d !important;}.cls-gw3b-4{fill:#e1251b !important;}</style></defs><g id="Group_239" data-name="Group 239"><path id="Rectangle_26" data-name="Rectangle 26" class="cls-gw3b-1" d="M0,0H207a8,8,0,0,1,8,8V45a8,8,0,0,1-8,8H0V0Z"/><rect id="Rectangle_27" data-name="Rectangle 27" class="cls-gw3b-2" y="19.51" width="215" height="13.98"/><rect id="Rectangle_27-2" data-name="Rectangle 27" class="cls-gw3b-3" x="41" width="151" height="53"/></g><g id="Layer_2" data-name="Layer 2"><rect id="_1" data-name="1" class="cls-gw3b-2" x="158.44" width="16.78" height="53"/><rect id="_2" data-name="2" class="cls-gw3b-2" x="124.89" width="16.78" height="53"/><rect id="_3" data-name="3" class="cls-gw3b-2" x="91.33" width="16.78" height="53"/><rect id="_4" data-name="4" class="cls-gw3b-2" x="57.78" width="16.78" height="53"/></g><g id="Layer_3" data-name="Layer 3"><rect id="_1-2" data-name="1" class="cls-gw3b-4" x="158.44" width="16.78" height="53"/><rect id="_2-2" data-name="2" class="cls-gw3b-4" x="124.89" width="16.78" height="53"/><rect id="_3-2" data-name="3" class="cls-gw3b-4" x="91.33" width="16.78" height="53"/><rect id="_4-2" data-name="4" class="cls-gw3b-4" x="57.78" width="16.78" height="53"/></g><g id="Layer_4" data-name="Layer 4"><g id="_1-3" data-name="1"><rect x="158.94" y="0.5" width="15.78" height="52"/><path class="cls-gw3b-2" d="M174.22,1V52H159.44V1h14.78m1-1H158.44V53h16.78V0Z"/></g><g id="_2-3" data-name="2"><rect x="125.39" y="0.5" width="15.78" height="52"/><path class="cls-gw3b-2" d="M140.67,1V52H125.89V1h14.78m1-1H124.89V53h16.78V0Z"/></g><g id="_3-3" data-name="3"><rect x="91.83" y="0.5" width="15.78" height="52"/><path class="cls-gw3b-2" d="M107.11,1V52H92.33V1h14.78m1-1H91.33V53h16.78V0Z"/></g></g></svg>
