<svg xmlns="http://www.w3.org/2000/svg" width="40.418" height="33.159" viewBox="0 0 40.418 33.159">
  <g id="Leads" transform="translate(5.721 3.739)">
    <g id="Color" transform="translate(-5.721 -3.739)">
      <g id="Group_145" data-name="Group 145" transform="translate(19.633 3.365)">
        <path id="Path_205" data-name="Path 205" d="M46.877,19.112a10.363,10.363,0,0,1,3.134.718l-1,2.914a5.225,5.225,0,0,1-5.727-.012l-1-2.9a10.363,10.363,0,0,1,3.134-.718,6.677,6.677,0,1,1,1.46,0Z" transform="translate(-35.755 -5.8)" fill="#d6d6d8"/>
        <path id="Path_206" data-name="Path 206" d="M37.145,31.98l4.9,14.256H33.21V40.123A10.373,10.373,0,0,1,37.145,31.98Z" transform="translate(-33.21 -16.442)" fill="#1d71b8"/>
        <path id="Path_207" data-name="Path 207" d="M62.177,40.123v6.113H53.34l4.9-14.256a11.344,11.344,0,0,1,.89.8A10.352,10.352,0,0,1,62.177,40.123Z" transform="translate(-41.393 -16.442)" fill="#1d71b8"/>
        <path id="Path_208" data-name="Path 208" d="M46.123,40.246l-1.555,4.522-4.9-14.256-.208-.605a.868.868,0,0,1,.534-1.1l1.157-.392a.857.857,0,0,1,1.092.534l.018.053,1,2.9Z" transform="translate(-35.731 -14.975)" fill="#1d71b8"/>
        <path id="Path_209" data-name="Path 209" d="M56.32,29.907l-.208.605-4.9,14.256H48.1l1.555-4.522,2.861-8.327,1-2.914.018-.053a.857.857,0,0,1,1.092-.534l1.157.392A.868.868,0,0,1,56.32,29.907Z" transform="translate(-39.263 -14.975)" fill="#1d71b8"/>
        <path id="Path_210" data-name="Path 210" d="M51.617,34.342l-2.861,8.327L45.89,34.33A5.225,5.225,0,0,0,51.617,34.342Z" transform="translate(-38.364 -17.397)" fill="#3c3c3b"/>
      </g>
      <g id="Group_146" data-name="Group 146">
        <path id="Path_211" data-name="Path 211" d="M15.338,14.944a11.387,11.387,0,0,1,3.49.8l-1.116,3.241a5.819,5.819,0,0,1-6.374-.012l-1.11-3.229a11.742,11.742,0,0,1,3.49-.8,7.434,7.434,0,1,1,1.62,0Z" transform="translate(-2.963 -0.13)" fill="#d6d6d8"/>
        <path id="Path_212" data-name="Path 212" d="M4.5,29.26l5.46,15.87H.13V38.323A11.548,11.548,0,0,1,4.5,29.26Z" transform="translate(-0.13 -11.971)" fill="#fff"/>
        <path id="Path_213" data-name="Path 213" d="M32.364,38.327v6.807H22.53L27.984,29.27a12.835,12.835,0,0,1,.991.884A11.5,11.5,0,0,1,32.364,38.327Z" transform="translate(-9.236 -11.975)" fill="#fff"/>
        <path id="Path_214" data-name="Path 214" d="M14.493,38.458,12.766,43.5l-5.46-15.87-.231-.677a.968.968,0,0,1,.594-1.223l1.288-.433a.956.956,0,0,1,1.217.594l.018.059,1.11,3.229Z" transform="translate(-2.932 -10.338)" fill="#fff"/>
        <path id="Path_215" data-name="Path 215" d="M25.846,26.964l-.231.677L20.16,43.5H16.7l1.733-5.033,3.181-9.265,1.116-3.241.018-.059a.952.952,0,0,1,1.217-.594l1.288.433A.959.959,0,0,1,25.846,26.964Z" transform="translate(-6.866 -10.346)" fill="#fff"/>
        <path id="Path_216" data-name="Path 216" d="M20.614,31.888l-3.181,9.265L14.24,31.87A5.808,5.808,0,0,0,20.614,31.888Z" transform="translate(-5.866 -13.032)" fill="#3c3c3b"/>
      </g>
    </g>
  </g>
</svg>
