<!-- Generated by IcoMoon.io -->
<svg version="1.1" xmlns="http://www.w3.org/2000/svg" width="96" height="96" viewBox="0 0 96 96">
<title>paperclip</title>
<path d="M66.031 48.439l-25.464 25.464c-4.682 4.682-12.286 4.669-16.962-0.008v0c-4.686-4.686-4.697-12.273 0.013-16.984l34.977-34.977c2.935-2.935 7.668-2.96 10.618-0.011v0c2.929 2.929 2.931 7.675 0.016 10.591l-35.035 35.035c-1.162 1.162-3.045 1.162-4.225-0.017v0c-1.172-1.172-1.172-3.071-0.003-4.239l25.459-25.459-2.121-2.121-25.443 25.443c-2.35 2.35-2.372 6.138-0.012 8.498v0c2.343 2.343 6.13 2.355 8.467 0.019l35.025-35.025c4.098-4.098 4.088-10.753-0.004-14.845v0c-4.101-4.101-10.742-4.107-14.854 0.005l-34.999 34.999c-5.857 5.857-5.844 15.365 0.002 21.211v0c5.858 5.858 15.358 5.855 21.231-0.018l25.438-25.438-2.121-2.121z"></path>
</svg>
