<svg xmlns="http://www.w3.org/2000/svg" data-name="Layer 1" viewBox="0 0 48 60" x="0px" y="0px"><title>pairing</title><path d="M38,5H10a5,5,0,0,0-5,5V40a3,3,0,0,0,3,3H33a1,1,0,0,0,0-2H30.78l-1.5-6H38a5,5,0,0,0,5-5V10A5,5,0,0,0,38,5ZM19,38H7V24H9.29a.67.67,0,0,1,.5.21,2.69,2.69,0,0,0,1.92.79h2.58a2.69,2.69,0,0,0,1.92-.79.67.67,0,0,1,.5-.21H19Zm18-6H36a1,1,0,0,1,0-2h1a1,1,0,0,1,0,2Zm4-5H21V22a3,3,0,0,0-3-3H8l-.3,0-.3,0-.29.08-.11,0V10a3,3,0,0,1,3-3H38a3,3,0,0,1,3,3Z"/><path d="M15.29,28.29,12,31.59l-1.29-1.3a1,1,0,0,0-1.42,1.42l2,2a1,1,0,0,0,1.42,0l4-4a1,1,0,0,0-1.42-1.42Z"/><path d="M36,14H26.41l1.3-1.29a1,1,0,0,0-1.42-1.42l-3,3a1,1,0,0,0-.21,1.09A1,1,0,0,0,24,16H36a1,1,0,0,0,0-2Z"/><path d="M36,18H24a1,1,0,0,0,0,2h9.59l-1.3,1.29a1,1,0,0,0,0,1.42,1,1,0,0,0,1.42,0l3-3a1,1,0,0,0,.21-1.09A1,1,0,0,0,36,18Z"/></svg>
