<svg xmlns="http://www.w3.org/2000/svg" width="29.652" height="18.134" viewBox="0 0 29.652 18.134">
  <defs>
    <rect id="rect-1" width="29.652" height="18.134" x="0" y="0"/>
    <rect id="rect-2" width="29.652" height="18.134" x="0" y="0"/>
  </defs>
  <g>
    <path fill="rgb(51,153,255)" fill-rule="evenodd" d="M8.20809494 5.78512879c.07935126-.00312879.15870253-.00312879.2380538 0l.18092088.01251515c.68559494.06570454 1.18392089.34729545 1.4981519.84164394l.05395886.09386364c.01587025.02815909.0317405.05631818.0444367.08447727.08887343.17521212.14600634.34416666.17774684.50373485.0063481.04067424.0126962.08134848.01587026.12202272.01587025.12202273.0253924.25030303.02856645.38484091v.02190152h2.2186614c.46658544 0 .86651582.16269697 1.19344303.48496212.32692722.32539394.49197785.71962121.49197785 1.17955303 0 .45993182-.16505063.8510303-.49197785 1.17642424l-.07617721.07509091c.26027215.30349243.39040823.66017424.39040823 1.07004546 0 .45993181-.16505064.8510303-.49197785 1.17642424-.07935127.08134848-.16505064.15018182-.25392405.20962879.19044304.27220454.2824905.58195454.2824905.93237878 0 .45993182-.16187658.8510303-.49197784 1.17642425-.14283228.14079545-.29836076.25030303-.46658545.32852272.13965823.24404546.20948734.51312122.20948734.81348485 0 .45993182-.16505063.8510303-.49197784 1.17642424-.16187659.15956819-.33962342.27846213-.53324051.3629394-.03491456.01251515-.06982911.02815909-.10791772.03754545-.16822469.04067425-.38088608.06257576-.63798418.06883334H7.66215823c-1.04108861-.0250303-2.14248418-.14079546-3.30418671-.34729546-.38406013-.06883333-.7712943-.14705303-1.16805063-.23778788-.29201266-.06570454-.58402532-.13453788-.88238608-.21275757-.0380886-.00938637-.07935127-.02190152-.11743987-.03128788-.08569937-.01877273-.16822469-.03754546-.24757595-.05944697-.24757595-.06570455-.47293355-.14392424-.67289874-.2346591C.41580063 16.60447728 0 15.96933334.02539241 15.09327274l-.00317406-4.05803788v-.03754546c.00952216-.25343181.06030697-.4880909.15235443-.70397727.13013608-.30662121.34597152-.57569697.64433228-.80409848l.0063481-.00625758c.06348102-.04693182.12696203-.09386364.19679114-.13453788l4.40240823-3.0724697c.47293355-.30975 1.05061076-.47244696 1.73937975-.48496212h1.04426266V5.7851288z"/>
    <path fill="rgb(51,153,255)" fill-rule="evenodd" d="M16.98434494 7.847h1.15535443v2.51867424c0 .04067424.00317405.0782197.0063481.11889394v.03128788c.0063481.09073485.0190443.17521212.03491456.2565606v.00625758c.08887341.4661894.2888386.81974243.59989556 1.06378788.28249051.26594697.66972469.413 1.16170254.44428788h.01587025c.04761076.00312879.09522152.00312879.14600633 0h.00952215c.11109177-.00938636.2190095-.0250303.32692722-.0500606-.0190443.04380302-.04126266.08447727-.06665507.1251515-.0253924.04380304-.05395886.08447728-.08569936.12515152-.03491456.04380303-.07617722.08760606-.11743988.1282803-.18726899.1845985-.40310443.31913637-.65068038.40361364.2444019.04693182.46023734.16582576.65068038.35042425.03808861.04067424.07617722.0782197.10791772.12202272.03491456.04380303.06665507.08760606.09522152.13453788.11743988.19398485.17774684.413.17774684.65704546 0 .19085606-.0380886.36606818-.11109177.52563636-.0190443.04380303-.04126266.08760606-.06665507.1282803-.05395886.09073485-.12378797.17521212-.20313924.25343182-.18726899.18459849-.40627848.31913637-.65068038.40361364.18409494.03441666.35231962.10950757.5015.22214394.05078481.03754545.10156962.08134848.14918038.1282803.07935127.0782197.14918038.16269697.20313924.25343182.04761076.0782197.08569937.16269697.11426583.24717424.04126265.1282803.063481.26281818.063481.40674243 0 .35668181-.12696202.66017424-.38088607.91047727-.19361709.18772727-.41262658.30662121-.66655063.35355303h-.0063481c-.05395886.00938636-.10474367.01564394-.16187658.01877273h-.79351266c-.13013608-.0031288-.25075-.00938637-.35866772-.02190152-.1936171-.02190151-.34914557-.05631818-.47293355-.10950758-.19361709-.08134848-.37136392-.2033712-.5332405-.36293939-.33010127-.32226515-.49197785-.71649242-.49197785-1.17642424 0-.30036364.06982911-.57256818.20948734-.81348485-.16822468-.0782197-.32375317-.19085606-.46658544-.32852273-.32692722-.32539394-.49197785-.71649242-.49197785-1.17642424 0-.35042424.09522152-.66017424.2824905-.93237879-.08887341-.05944697-.17457278-.13140909-.25392405-.20962879-.33010126-.32226515-.49197784-.71649242-.49197784-1.17642424 0-.40987121.13013607-.76655303.39040822-1.07004545-.0253924-.0250303-.0507848-.04693182-.07617721-.07509091-.33010127-.32226515-.49197785-.71649243-.49197785-1.17642424 0-.45993182.16505063-.8541591.49197785-1.17955303.33327531-.31600758.73003164-.47870455 1.19661709-.47870455z"/>
    <path fill="rgb(51,153,255)" fill-rule="evenodd" d="M21.20583228 5.78512879c.08252531-.00312879.16187658-.00312879.2380538 0h1.0410886c.688769.01251515 1.2664462.17521212 1.73937975.48496212l4.40240823 3.0724697c.06982911.04380303.13331012.08760606.19679114.13453787l.0063481.00625758c.29836076.22840152.51102215.49747727.64433228.80409849.09204747.21588636.14283228.45054545.15552848.70397727v.03754545l-.00317405 4.0517803c.0253924.87606061-.39040823 1.51120455-1.24422785 1.90230304-.19996519.09073484-.42532279.17208333-.67289873.23465909-.07935127.02190151-.16187659.04067424-.24757595.05944697-.03808861.00938636-.07935127.02190151-.11743988.03128788-.29836076.0750909-.59354747.14705303-.88238607.21275757-.39675633.08760606-.78716456.16895455-1.16805064.23778788-1.16170253.20962879-2.26627215.32539394-3.3041867.34729545-.08569937.0031288-.16822469.0031288-.25392406.0031288h-.15235443c-.11426582 0-.2253576-.0031288-.33644936-.00625758.24757595-.36919697.37136392-.79158334.37136392-1.2640303 0-.2596894-.04126266-.50373485-.11743987-.73213637-.05395886-.15956818-.12378798-.31600758-.2126614-.45993182l-.00317405-.00625757c-.0190443-.0281591-.03491455-.05944697-.05395886-.08760606.0190443-.0281591.03808861-.05944697.05713291-.08760607l.00317406-.00312878c.04761076-.0782197.08887341-.1564394.12696202-.23778788v-.00312879c.13331013-.29097727.1999652-.60698485.20313924-.95115151v-.0031288c-.00317405-.44115908-.11426582-.84164393-.33010126-1.19519696l-.00317406-.00312879c-.00317405-.00625758-.0063481-.00938636-.00952215-.01564394-.0063481-.01251515-.01587025-.02190151-.02221835-.03441667l-.02221836-.03441666c.0190443-.0281591.03808861-.05944697.05713292-.08760606l.00317405-.0031288c.04761076-.07821969.08887341-.15643939.12696202-.23778787v.00312879c.13331013-.29097728.1999652-.60698485.20313924-.9542803v-.0031288c0-.04067424 0-.08134848-.00317405-.12202272.14600633-.1533106.27931646-.33165152.40310443-.53815152.00317405-.00312878.00317405-.00625757.0063481-.00938636l.00952215-.01877273c.00317406-.00312878.00317406-.00625757.0063481-.00938636.00317406-.00625758.00952216-.01251515.0126962-.02190152 0-.00312878.00317406-.00312878.00317406-.00625757.0063481-.00938636.00952215-.01877273.01587025-.0281591.16822469-.29410605.31105696-.65704545.42214874-1.08568939l.19679114.2096288c0 .00938636-.00317405.01877272-.00317405.02815908l-.02539241.19398485c-.15235443 1.2671591.18409494 2.38100758 1.00617405 3.33841667.33327532.3879697.7459019.75090909 1.23787975 1.08881818l.0444367-.04693182c.09204747-.10012121.08887342-.2065-.00952215-.30975l-.0063481-.00625757-.00317405-.0031288c-.9966519-1.0293712-1.46958544-2.1901515-1.41562658-3.47921211.01587025-.36919697.07300317-.7477803.17457279-1.1388788l.02856645-.11263635-1.10774367-1.17955304h-.94904114c-.01587025.16269697-.0380886.31913637-.06030696.4661894-.0063481.04380303-.0126962.08447727-.0190443.12515151-.01587026.10012122-.03491456.19398485-.05395887.2847197 0 .00625758-.00317405.01251515-.00317405.01877273v.00312879c-.07935126.36606818-.17774683.67894697-.29836076.93550757-.0253924.05631818-.05395886.10950758-.08252531.15956818-.00317405.00625758-.00952215.01564394-.0126962.02190152l-.00317406.00312879c-.00952215.01251515-.01587025.0250303-.0253924.04067424h.00317405c-.18409494.30975-.40945253.51937879-.67607278.63201515-.05713292.0250303-.11743988.04380303-.17774684.05944697-.0317405.00625758-.06030696.01251515-.09204747.01877273l-.08887342.01251515c-.00952215 0-.02221835.00312879-.0317405.00312879h-.0063481c-.2317057-.01251515-.41262659-.07509091-.54593671-.19085606-.13013608-.10950758-.2126614-.26594697-.25075-.46931819v-.00312878c-.00952215-.04380303-.01587026-.08760606-.0190443-.13766667v-.01251515c0-.01877273-.00317406-.03441667-.00317406-.0531894V7.81571213c.00317405-.13453789.0126962-.2628182.02856646-.38484092.0063481-.04067424.00952215-.08134848.0190443-.12202273.02856646-.15956818.08887342-.32539393.17774684-.50373484.01587025-.0281591.02856645-.05631819.0444367-.08447728l.05395887-.09386363c.31423101-.49434849.81255696-.7759394 1.4981519-.84164394h.16187658z"/>
    <path fill="rgb(51,153,255)" fill-rule="evenodd" d="M9.2460095 1.61132576L10.44897467.9261212c.03174051-.01877273.06665507-.02815909.10474367-.02815909.03808861 0 .07300317.00938636.10474368.03128788.0317405.01877273.0571329.04693182.07617721.0782197l2.51067405 4.84336363c.0253924.04693182.02856646.09699243.0126962.14705303-.01587025.05006061-.04761076.09073485-.09204746.11576516l-.7141614.40674242c-.04761076.02815909-.09839557.03441667-.14918038.02190151-.05395886-.01251515-.09522152-.04067424-.12378797-.08760606l-3.0026519-4.55864394c-.02221835-.03128787-.0317405-.06570454-.0317405-.10325 0-.03754545.0063481-.07196212.0253924-.10637878.01587025-.03128788.0444367-.05631819.07617721-.07509091z"/>
    <path fill="rgb(51,153,255)" fill-rule="evenodd" d="M15.65124367.0281591c.0317405.01877272.05713291.04380302.07617722.07821969.0190443.03128788.0253924.06883333.0253924.10325l-.28566456 5.43157576c-.00317405.05318939-.02221835.1001212-.063481.13766666-.03808862.03754546-.08569938.05631818-.13965824.0531894h-.82207911c-.05395886 0-.10156962-.01877273-.13965823-.0531894-.04126266-.03754545-.06030696-.08134848-.06348101-.13766666l-.2824905-5.43157576c-.00317406-.03754546.0063481-.07196212.0253924-.10325.0190443-.03128788.0444367-.05944697.07617721-.0782197C14.08961075.00938636 14.12452532 0 14.16261392 0h1.38706013c.03491456 0 .06665506.00938636.10156962.0281591z"/>
    <path fill="rgb(51,153,255)" fill-rule="evenodd" d="M20.5297595 1.89604545l-2.99947785 4.56177273c-.02856646.04380303-.06982912.07509091-.12378798.08760606-.05395886.01251515-.10474367.00625758-.14918038-.02190151l-.7141614-.40674243c-.04761075-.02815909-.07935126-.06570454-.09204746-.11576515-.01587025-.0500606-.00952215-.10012121.0126962-.14705303l2.51067405-4.84336364c.0190443-.03441666.04126266-.05944696.07617722-.0782197.0317405-.01877272.06665506-.03128787.10474367-.03128787.0380886 0 .07300316.00938636.10474367.02815909l1.20296519.68520455c.0317405.01877272.05713291.04380303.07617722.0750909.0190443.03441667.0253924.06883334.0253924.1063788-.00317405.03441666-.01587025.06883333-.03491456.1001212z"/>
  </g>
</svg>
