<svg xmlns="http://www.w3.org/2000/svg" xmlns:xlink="http://www.w3.org/1999/xlink" width="24.209" height="23.864" viewBox="0 0 24.209 23.864">
  <defs>
    <rect id="rect-1" width="24.209" height="23.864" x="0" y="0"/>
    <mask id="mask-2" maskContentUnits="userSpaceOnUse" maskUnits="userSpaceOnUse">
      <rect width="24.209" height="23.864" x="0" y="0" fill="black"/>
      <use fill="white" xlink:href="#rect-1"/>
    </mask>
  </defs>
  <g>
    <use fill="none" xlink:href="#rect-1"/>
    <g mask="url(#mask-2)">
      <path fill="rgb(42,201,64)" fill-rule="evenodd" d="M1.08698263 4.93261303V9.4380604c0 1.06193543.62458801 2.54386902 1.38475037 3.295578l7.67662048 7.56715394c.7625885.74931335 2.00691223.74931335 2.76950073 0l5.7181244-5.63659668c.7625885-.74931336.7625885-1.98068238 0-2.72999573l-7.6766205-7.56715393c-.7625885-.75170898-2.26594543-1.3650055-3.34324645-1.3650055H3.04547872c-1.07730102 0-1.95849609.8686371-1.95849609 1.93057252zM14.53258505 20.6372639l6.98425293-6.8846588c.25419616-.25056458.25419616-.65863038 0-.90919495l-9.98373413-9.84136963c1.07730102 0 2.58065796.6132965 3.34324646 1.36500549l7.67662048 7.56715393c.7625885.74931335.7625885 1.98068237 0 2.72999573l-5.71812439 5.6342163c-.61975098.61090089-1.56388855.72544861-2.30226135.33885193zM3.69911947 7.5051228c0-1.06671143.87635803-1.93057252 1.9584961-1.93057252 1.08213806 0 1.95849609.86386109 1.95849609 1.93057251 0 1.06669617-.87635803 1.93055725-1.9584961 1.93055725-1.08213806.00239563-1.95849609-.86386108-1.95849609-1.93055725z"/>
    </g>
  </g>
</svg>
