<?xml version="1.0" encoding="utf-8"?>
<!-- Generator: Adobe Illustrator 25.0.0, SVG Export Plug-In . SVG Version: 6.00 Build 0)  -->
<svg version="1.1" id="Layer_1" xmlns="http://www.w3.org/2000/svg" xmlns:xlink="http://www.w3.org/1999/xlink" x="0px" y="0px"
	 viewBox="0 0 100 100" style="enable-background:new 0 0 100 100;" xml:space="preserve">
<style type="text/css">
	.cls-1{fill:white;}
</style>
<g>
	<path class="cls-1" d="M24.29,25.98v11.98c0,3.32,2.55,6.18,5.86,6.32c3.52,0.16,6.42-2.65,6.42-6.13V25.44
		c0-0.09,0.01-0.17,0.02-0.26l4.84-14.96C41.59,9.04,40.68,8,39.49,8h-4.72c-0.91,0-1.7,0.63-1.9,1.51l-8.42,15.14
		C24.35,25.09,24.29,25.53,24.29,25.98z"/>
	<path class="cls-1" d="M49.81,44.29c0.12,0.01,0.25,0.01,0.37,0.01c0.12,0,0.25,0,0.37-0.01c3.27-0.19,5.77-3.02,5.77-6.3V25.38
		c0-0.05,0-0.1-0.01-0.15L53.59,9.81C53.52,8.79,52.67,8,51.64,8h-1.46h-1.46c-1.02,0-1.87,0.79-1.95,1.81l-2.72,15.43
		c0,0.05,0,0.1-0.01,0.15v12.61C44.04,41.26,46.54,44.09,49.81,44.29z"/>
	<path class="cls-1" d="M63.77,25.18c0.01,0.09,0.02,0.17,0.02,0.26v12.72c0,3.48,2.9,6.29,6.42,6.13c3.31-0.15,5.86-3.01,5.86-6.32
		V25.98c0-0.45-0.05-0.9-0.15-1.33L67.49,9.51C67.28,8.63,66.5,8,65.59,8h-4.72c-1.18,0-2.09,1.04-1.94,2.21L63.77,25.18z"/>
	<path class="cls-1" d="M89.68,48.2c-4.93,0-9.05-3.58-9.89-8.27c-0.86,4.57-4.69,8.06-9.41,8.26c-0.15,0.01-0.3,0.01-0.45,0.01
		c-4.93,0-9.04-3.58-9.89-8.27c-0.86,4.5-4.62,7.98-9.26,8.25c-0.2,0.01-0.4,0.02-0.6,0.02c-0.2,0-0.4-0.01-0.6-0.02
		c-4.64-0.27-8.4-3.75-9.26-8.25c-0.36,2.01-1.31,3.85-2.78,5.32c-1.9,1.9-4.42,2.94-7.1,2.94c0,0,0,0,0,0c-0.15,0-0.3,0-0.45-0.01
		c-4.72-0.21-8.54-3.69-9.41-8.26c-0.36,2.01-1.31,3.85-2.78,5.33c-1.9,1.9-4.42,2.94-7.1,2.94c0,0,0,0,0,0c-0.15,0-0.3,0-0.45-0.01
		c-0.64-0.03-1.27-0.12-1.87-0.26v42.58c0,0.84,0.68,1.53,1.53,1.53h51.06V59.92c0-1.08,0.87-1.95,1.95-1.95h15.9
		c1.08,0,1.95,0.87,1.95,1.95v32.11h9.71c0.84,0,1.53-0.68,1.53-1.53V47.93c-0.6,0.14-1.23,0.23-1.87,0.26
		C89.98,48.2,89.83,48.2,89.68,48.2z M47.88,73.84c0,1.08-0.87,1.95-1.95,1.95H18.31c-1.08,0-1.95-0.87-1.95-1.95V61.51
		c0-1.08,0.87-1.95,1.95-1.95h27.61c1.08,0,1.95,0.87,1.95,1.95V73.84z"/>
	<path class="cls-1" d="M95.41,24.27L81.31,9.24C81.01,8.49,80.29,8,79.49,8h-4.56c-1.3,0-2.24,1.25-1.87,2.5l10.41,14.53
		c0.05,0.18,0.08,0.36,0.08,0.55v12.57c0,3.48,2.9,6.29,6.42,6.13c3.31-0.15,5.86-3.01,5.86-6.32V26.41
		C95.81,25.68,95.68,24.96,95.41,24.27z"/>
	<path class="cls-1" d="M16.82,38.16V25.59c0-0.19,0.03-0.37,0.08-0.55L27.31,10.5C27.68,9.25,26.74,8,25.44,8h-4.56
		c-0.8,0-1.53,0.49-1.82,1.24L4.95,24.27c-0.27,0.68-0.4,1.41-0.4,2.14v11.55c0,3.32,2.55,6.18,5.86,6.32
		C13.92,44.45,16.82,41.64,16.82,38.16z"/>
</g>
</svg>
