<svg id="Layer_1" data-name="Layer 1" xmlns="http://www.w3.org/2000/svg" viewBox="0 0 215 53"><defs><style>.cls-p3-1{fill:#fff !important;}.cls-p3-2{fill:#1d71b8 !important;}.cls-p3-3{fill:#7b10ad !important;}.cls-p3-4{fill:#14191d !important;}</style></defs><g id="Group_239" data-name="Group 239"><path id="Rectangle_26" data-name="Rectangle 26" class="cls-p3-1" d="M0,0H207a8,8,0,0,1,8,8V45a8,8,0,0,1-8,8H0V0Z"/><path id="Rectangle_26-2" data-name="Rectangle 26" class="cls-p3-2" d="M0,0H207a8,8,0,0,1,8,8V45a8,8,0,0,1-8,8H0V0Z"/><path id="Rectangle_26-3" data-name="Rectangle 26" class="cls-p3-3" d="M0,0H207a8,8,0,0,1,8,8V45a8,8,0,0,1-8,8H0V0Z"/></g><g id="Layer_6" data-name="Layer 6"><rect id="Rectangle_27" data-name="Rectangle 27" class="cls-p3-4" x="86" width="108" height="53"/><rect id="_1" data-name="1" class="cls-p3-1" x="170" width="12" height="53"/><rect id="_2" data-name="2" class="cls-p3-1" x="146" width="12" height="53"/><rect id="_3" data-name="3" class="cls-p3-1" x="122" width="12" height="53"/></g></svg>
