<svg id="Layer_1" data-name="Layer 1" xmlns="http://www.w3.org/2000/svg" viewBox="0 0 215 53"><defs><style>.cls-p-1{fill:#fff  !important;}.cls-p-2{fill:#1d71b8  !important;}.cls-p-3{fill:#7b10ad  !important;}.cls-p-4{fill:#14191d  !important;}</style></defs><g id="Group_239" data-name="Group 239"><path id="Rectangle_26" data-name="Rectangle 26" class="cls-p-1" d="M0,0H207a8,8,0,0,1,8,8V45a8,8,0,0,1-8,8H0V0Z"/><path id="Rectangle_26-2" data-name="Rectangle 26" class="cls-p-2" d="M0,0H207a8,8,0,0,1,8,8V45a8,8,0,0,1-8,8H0V0Z"/><path id="Rectangle_26-3" data-name="Rectangle 26" class="cls-p-3" d="M0,0H207a8,8,0,0,1,8,8V45a8,8,0,0,1-8,8H0V0Z"/><rect id="Rectangle_27" data-name="Rectangle 27" class="cls-p-4" x="41" width="151" height="53"/></g></svg>
