<svg id="Layer_1" data-name="Layer 1" xmlns="http://www.w3.org/2000/svg" viewBox="0 0 583.86 591.82"><defs><style>.cls-1{fill:#272525;}.cls-2{fill:red;}</style></defs><title>Reports</title><path class="cls-1" d="M690.5,400c0,160.44-130.06,290.5-290.5,290.5S109.5,560.44,109.5,400c0-160.27,129.79-290.23,290-290.5v71c-121,.27-219,98.44-219,219.5,0,121.23,98.27,219.5,219.5,219.5S619.5,521.23,619.5,400a221.07,221.07,0,0,0-2.8-35.13l68.35-21.15A291.48,291.48,0,0,1,690.5,400Z" transform="translate(-109.5 -98.68)"/><path class="cls-2" d="M693.36,330.15l-10.53,3.26-68.06,21.06-10.56,3.26c-18.85-91.57-97.74-161.21-193.71-166V98.68C548.3,103.4,662.63,200.6,693.36,330.15Z" transform="translate(-109.5 -98.68)"/></svg>