<svg id="Layer_1" data-name="Layer 1" xmlns="http://www.w3.org/2000/svg" viewBox="0 0 336.63 336.63">
<title>Review</title>
<path d="M359.07,314.44l-77.24-77.22a148.68,148.68,0,0,1-44.62,44.62l77.23,77.23a31.56,31.56,0,0,0,44.63-44.63Z" transform="translate(-31.69 -31.69)"/><path d="M284.16,157.93A126.24,126.24,0,1,0,157.92,284.16,126.24,126.24,0,0,0,284.16,157.93ZM157.92,252.6a94.68,94.68,0,1,1,94.68-94.67A94.79,94.79,0,0,1,157.92,252.6Z" transform="translate(-31.69 -31.69)"/><path d="M84.28,157.93h21a52.67,52.67,0,0,1,52.6-52.61v-21A73.72,73.72,0,0,0,84.28,157.93Z" transform="translate(-31.69 -31.69)"/></svg>
