<svg xmlns="http://www.w3.org/2000/svg" width="37.445" height="38.495" viewBox="0 0 37.445 38.495">
  <g id="Settings" transform="translate(1.671 -468.25)">
    <path id="Icon_material-settings" data-name="Icon material-settings" d="M36.434,24.134a15,15,0,0,0,.135-1.886,15,15,0,0,0-.135-1.886l4.061-3.176a.971.971,0,0,0,.231-1.232l-3.85-6.66A.967.967,0,0,0,35.7,8.871L30.91,10.8a14.063,14.063,0,0,0-3.253-1.886l-.731-5.1A.939.939,0,0,0,25.982,3h-7.7a.939.939,0,0,0-.943.808l-.731,5.1A14.788,14.788,0,0,0,13.356,10.8L8.563,8.871a.939.939,0,0,0-1.174.423l-3.85,6.66a.949.949,0,0,0,.231,1.232l4.061,3.176A15.264,15.264,0,0,0,7.7,22.248a15.264,15.264,0,0,0,.135,1.886L3.77,27.31a.971.971,0,0,0-.231,1.232l3.85,6.66a.967.967,0,0,0,1.174.423L13.356,33.7a14.062,14.062,0,0,0,3.253,1.886l.731,5.1a.939.939,0,0,0,.943.808h7.7a.939.939,0,0,0,.943-.808l.731-5.1A14.788,14.788,0,0,0,30.91,33.7L35.7,35.625a.939.939,0,0,0,1.174-.423l3.85-6.66a.971.971,0,0,0-.231-1.232l-4.061-3.176Zm-14.3,4.85a6.737,6.737,0,1,1,6.737-6.737A6.744,6.744,0,0,1,22.133,28.984Z" transform="translate(-5.077 465.25)" fill="#e1251b"/>
  </g>
</svg>
