<svg xmlns="http://www.w3.org/2000/svg" width="19.732" height="19.398" viewBox="0 0 19.732 19.398">
  <path fill="#eaa846" fill-rule="evenodd" d="M3.99999652 12.44270245l-.7843532 4.8022836c-.1069014.65654572.15441314 1.31815803.67581347 1.70997438.52221949.39097192 1.21564506.4433267 1.78619546.13510909l4.18840512-2.25378845 4.18840513 2.25421067c.24779827.13257579.5193524.1992859.78803945.1992859.35183259 0 .702846-.11357608.99897517-.33439499.52180991-.39181635.78394362-1.05342866.67622305-1.70997438l-.78353403-4.8022836 3.37251396-3.4102378c.4611915-.46570412.62543464-1.16067149.42760561-1.7931509-.1986482-.6320572-.73028812-1.09480582-1.36841986-1.19191548l-4.67335249-.7143893L11.38766162.97236322C11.10218163.3770388 10.51074246 0 9.86564779 0c-.64386592 0-1.23489551.3770388-1.522833.9723632l-2.10280383 4.361068-4.67335248.71396708c-.6393605.09710965-1.16854291.55985828-1.3676007 1.19191547C0 7.87179316.16383357 8.56760496.62584422 9.03246466l3.3741523 3.4102378z"/>
</svg>
