<svg id="Layer_1" data-name="Layer 1" xmlns="http://www.w3.org/2000/svg" viewBox="0 0 215 53"><defs><style>.cls-y1b-1{fill:#fbce0d !important;}.cls-y1b-2{fill:#14191d !important;}.cls-y1b-3{fill:#fff !important;}.cls-y1b-4{fill:#e1251b !important;}</style></defs><g id="Group_239" data-name="Group 239"><path id="Rectangle_26" data-name="Rectangle 26" class="cls-y1b-1" d="M0,0H207a8,8,0,0,1,8,8V45a8,8,0,0,1-8,8H0V0Z"/></g><g id="Layer_6" data-name="Layer 6"><rect id="Rectangle_27" data-name="Rectangle 27" class="cls-y1b-2" x="86" width="108" height="53"/><rect id="_1" data-name="1" class="cls-y1b-3" x="170" width="12" height="53"/><rect id="_2" data-name="2" class="cls-y1b-3" x="146" width="12" height="53"/><rect id="_3" data-name="3" class="cls-y1b-3" x="122" width="12" height="53"/><rect id="_4" data-name="4" class="cls-y1b-3" x="98" width="12" height="53"/><rect id="_1-2" data-name="1" class="cls-y1b-4" x="170" width="12" height="53"/><rect id="_2-2" data-name="2" class="cls-y1b-4" x="146" width="12" height="53"/><rect id="_3-2" data-name="3" class="cls-y1b-4" x="122" width="12" height="53"/><rect id="_4-2" data-name="4" class="cls-y1b-4" x="98" width="12" height="53"/><g id="_1-3" data-name="1"><rect x="170.25" y="0.25" width="11.5" height="52.5"/><path class="cls-y1b-3" d="M181.5.5v52h-11V.5h11M182,0H170V53h12V0Z"/></g></g></svg>
