<!-- Generated by IcoMoon.io -->
<svg version="1.1" xmlns="http://www.w3.org/2000/svg" width="96" height="96" viewBox="0 0 96 96">
<title>bin</title>
<path d="M12 30v60c0 3.3 2.7 6 6 6h54c3.3 0 6-2.7 6-6v-60h-66zM30 84h-6v-42h6v42zM42 84h-6v-42h6v42zM54 84h-6v-42h6v42zM66 84h-6v-42h6v42z"></path>
<path d="M79.5 12h-19.5v-7.5c0-2.475-2.025-4.5-4.5-4.5h-21c-2.475 0-4.5 2.025-4.5 4.5v7.5h-19.5c-2.475 0-4.5 2.025-4.5 4.5v7.5h78v-7.5c0-2.475-2.025-4.5-4.5-4.5zM54 12h-18v-5.925h18v5.925z"></path>
</svg>
