<svg id="Layer_1" data-name="Layer 1" xmlns="http://www.w3.org/2000/svg" viewBox="0 0 219.45 212.64"><defs><style>.cls-1{fill:#231f20;}.cls-2{fill:#e1251b;}</style></defs><title>GB</title><path class="cls-1" d="M441.93,475.88a86.66,86.66,0,1,1,33-32.33l16.17,1.81a101.78,101.78,0,1,0-42.91,44.34Z" transform="translate(-298.24 -298.42)"/><path class="cls-1" d="M475.14,387.69c0-5.82-3.28-10.59-9-13.11-3.51-1.55-8.44-2.2-16.48-2.2H404.15a.89.89,0,0,0-.89.89V426.5a.89.89,0,0,0,.89.9h45.51c11.59,0,16.35-1.06,20.41-4.51a13.53,13.53,0,0,0,5.07-10.63c0-7.53-4-11.09-7.3-12.75A12.42,12.42,0,0,0,475.14,387.69Zm-23,27.2H417.59v-9.07h34.07c7.71,0,8.6,2.59,8.6,4.55C460.26,413.37,457.53,414.89,452.16,414.89Zm0-21.62H417.59v-8.39h34.57c3.74,0,8.1,1,8.1,3.86C460.26,391.92,457.84,393.27,452.16,393.27Z" transform="translate(-298.24 -298.42)"/><path class="cls-1" d="M350.38,427.38h43.2a.87.87,0,0,0,.88-.88v-32a.87.87,0,0,0-.88-.88H347.83a.88.88,0,0,0-.88.88v10.46a.88.88,0,0,0,.88.88h32.26v9H350.37c-6.24,0-8.8-2.53-9.44-3.31l-.22-.25c-.84-.92-3.39-3.71-3.39-11.32,0-4.94,1.26-9,3.55-11.55l.16-.19s2.87-3.76,9.34-3.76h43.21a.88.88,0,0,0,.88-.88v-10.3a.88.88,0,0,0-.88-.88H350.37c-23.61,0-28.56,15.05-28.56,27.68C321.81,418.45,331.15,427.38,350.38,427.38Z" transform="translate(-298.24 -298.42)"/><polygon class="cls-2" points="130.7 142.49 207.13 151.07 192.72 170.85 219.44 190.34 203.4 212.35 176.66 192.86 162.25 212.64 130.7 142.49"/></svg>