<?xml version="1.0" encoding="utf-8"?>
<!-- Generator: Adobe Illustrator 24.1.2, SVG Export Plug-In . SVG Version: 6.00 Build 0)  -->
<svg version="1.1" id="Layer_1" xmlns="http://www.w3.org/2000/svg" xmlns:xlink="http://www.w3.org/1999/xlink" x="0px" y="0px"
	 viewBox="0 0 500 200" style="enable-background:new 0 0 500 200;" xml:space="preserve">
<style type="text/css">
	.st0{fill:#E1251B !important;}
	.st1{fill:#FFFFFF !important;}
	.st3{fill:#222222 !important;}
</style>
<g>
	<g>
		<path class="st0" d="M83.83,179.43c-43.9,0-79.62-35.72-79.62-79.62S39.93,20.2,83.83,20.2s79.62,35.72,79.62,79.62
			S127.73,179.43,83.83,179.43z M83.83,32.02c-37.38,0-67.79,30.41-67.79,67.79s30.41,67.79,67.79,67.79s67.79-30.41,67.79-67.79
			S121.21,32.02,83.83,32.02z"/>
		<g>
			<path class="st0" d="M142.67,90.07c0-4.55-2.57-8.29-7.05-10.26c-2.75-1.21-6.61-1.73-12.9-1.73H87.11c-0.39,0-0.7,0.31-0.7,0.7
				v41.66c0,0.39,0.31,0.7,0.7,0.7h35.61c9.07,0,12.8-0.82,15.97-3.53c2.64-2.25,3.97-5.05,3.97-8.32c0-5.89-3.1-8.68-5.72-9.98
				C139.23,98.23,142.67,95.66,142.67,90.07z M124.68,111.37H97.62v-7.11h26.67c6.03,0,6.73,2.03,6.73,3.56
				C131.02,110.17,128.89,111.37,124.68,111.37z M124.68,94.44H97.62v-6.57h27.06c2.92,0,6.34,0.79,6.34,3.02
				C131.02,93.38,129.13,94.44,124.68,94.44z"/>
			<path class="st0" d="M45.02,121.14h33.82c0.38,0,0.69-0.31,0.69-0.69V95.38c0-0.38-0.31-0.69-0.69-0.69H43.02
				c-0.38,0-0.69,0.31-0.69,0.69v8.18c0,0.38,0.31,0.69,0.69,0.69h25.25v7.06H45.01c-4.88,0-6.89-1.98-7.39-2.59l-0.17-0.19
				c-0.66-0.72-2.65-2.91-2.65-8.86c0-3.87,0.99-7.08,2.77-9.04c0.02-0.02,0.12-0.13,0.13-0.15c0.02-0.03,2.24-2.94,7.31-2.94h33.82
				c0.38,0,0.69-0.31,0.69-0.69v-8.05c0-0.38-0.31-0.69-0.69-0.69H45.01c-18.48,0-22.36,11.78-22.36,21.66
				C22.65,114.15,29.97,121.14,45.02,121.14z"/>
		</g>
	</g>
	<polygon class="st0" points="477.93,141.26 186.58,141.26 204.66,55.98 496.01,55.98 	"/>
	<g>
		<path class="st3" d="M203.86,158.64c0,0.7-0.13,1.32-0.4,1.87c-0.27,0.55-0.65,1.02-1.13,1.4c-0.48,0.38-1.06,0.67-1.72,0.87
			c-0.67,0.2-1.4,0.3-2.19,0.3c-1.15,0-2.15-0.15-2.99-0.45c-0.84-0.3-1.64-0.82-2.37-1.55l1.51-1.51c0.55,0.55,1.15,0.94,1.79,1.15
			c0.64,0.21,1.34,0.32,2.11,0.32c1.01,0,1.78-0.2,2.32-0.61c0.54-0.4,0.81-0.98,0.81-1.73c0-0.71-0.2-1.23-0.6-1.57
			c-0.37-0.33-0.92-0.54-1.66-0.64l-1.79-0.26c-1.26-0.2-2.21-0.6-2.85-1.21c-0.75-0.68-1.13-1.65-1.13-2.92
			c0-0.65,0.12-1.25,0.35-1.8c0.23-0.55,0.57-1.01,1-1.4c0.43-0.39,0.96-0.69,1.59-0.91c0.62-0.21,1.33-0.32,2.13-0.32
			c1.02,0,1.9,0.14,2.63,0.41c0.73,0.27,1.42,0.71,2.08,1.32l-1.45,1.45c-0.47-0.45-0.98-0.76-1.53-0.92
			c-0.55-0.16-1.16-0.24-1.81-0.24c-0.89,0-1.57,0.22-2.04,0.66c-0.47,0.44-0.7,1.01-0.7,1.7c0,0.28,0.04,0.55,0.13,0.79
			c0.09,0.24,0.23,0.45,0.43,0.62c0.2,0.17,0.42,0.31,0.67,0.42c0.25,0.11,0.58,0.19,0.99,0.27l1.81,0.28
			c0.7,0.11,1.26,0.26,1.68,0.42c0.43,0.17,0.8,0.41,1.13,0.7C203.45,156.29,203.86,157.32,203.86,158.64z"/>
		<path class="st3" d="M220.44,158.43c-0.27,1.5-0.89,2.66-1.86,3.46s-2.15,1.2-3.54,1.2c-0.84,0-1.57-0.13-2.21-0.39
			c-0.64-0.26-1.21-0.64-1.7-1.14c-0.37-0.37-0.66-0.75-0.86-1.15c-0.21-0.4-0.36-0.83-0.46-1.31c-0.1-0.47-0.16-1.01-0.18-1.62
			c-0.02-0.6-0.03-1.3-0.03-2.1c0-0.79,0.01-1.49,0.03-2.1c0.02-0.6,0.08-1.14,0.18-1.62c0.1-0.47,0.25-0.91,0.46-1.31
			c0.21-0.4,0.49-0.78,0.86-1.15c0.5-0.5,1.06-0.88,1.7-1.14c0.64-0.26,1.38-0.39,2.21-0.39c1.4,0,2.59,0.4,3.55,1.2
			c0.97,0.8,1.58,1.95,1.85,3.46h-2.34c-0.17-0.78-0.51-1.41-1.02-1.89c-0.51-0.48-1.19-0.72-2.04-0.72c-0.91,0-1.65,0.31-2.23,0.94
			c-0.2,0.2-0.36,0.42-0.47,0.66c-0.11,0.24-0.21,0.54-0.28,0.88c-0.07,0.35-0.12,0.78-0.14,1.29c-0.02,0.51-0.03,1.14-0.03,1.89
			c0,0.75,0.01,1.38,0.03,1.9c0.02,0.51,0.07,0.94,0.14,1.29c0.07,0.35,0.16,0.64,0.28,0.88c0.11,0.24,0.27,0.46,0.47,0.66
			c0.58,0.62,1.33,0.94,2.23,0.94c0.85,0,1.54-0.24,2.05-0.72c0.52-0.48,0.87-1.11,1.05-1.89H220.44z"/>
		<path class="st3" d="M235.14,162.96v-6.62h-6.15v6.62h-2.3v-15.15h2.3v6.47h6.15v-6.47h2.3v15.15H235.14z"/>
		<path class="st3" d="M254.91,155.38c0,0.79-0.01,1.49-0.03,2.1c-0.02,0.6-0.08,1.14-0.18,1.62c-0.1,0.48-0.25,0.91-0.46,1.31
			c-0.21,0.4-0.49,0.78-0.86,1.15c-0.5,0.5-1.06,0.88-1.7,1.14c-0.64,0.26-1.38,0.39-2.21,0.39c-0.84,0-1.57-0.13-2.21-0.39
			c-0.64-0.26-1.21-0.64-1.7-1.14c-0.37-0.37-0.66-0.75-0.86-1.15c-0.21-0.4-0.36-0.83-0.46-1.31c-0.1-0.47-0.16-1.01-0.18-1.62
			c-0.02-0.6-0.03-1.3-0.03-2.1c0-0.79,0.01-1.49,0.03-2.1c0.02-0.6,0.08-1.14,0.18-1.62c0.1-0.47,0.25-0.91,0.46-1.31
			c0.21-0.4,0.49-0.78,0.86-1.15c0.5-0.5,1.06-0.88,1.7-1.14c0.64-0.26,1.38-0.39,2.21-0.39c0.84,0,1.57,0.13,2.21,0.39
			c0.64,0.26,1.21,0.64,1.7,1.14c0.37,0.37,0.66,0.75,0.86,1.15c0.21,0.4,0.36,0.83,0.46,1.31c0.1,0.48,0.16,1.02,0.18,1.62
			C254.9,153.89,254.91,154.59,254.91,155.38z M252.62,155.38c0-0.75-0.01-1.38-0.03-1.89c-0.02-0.51-0.06-0.94-0.13-1.3
			c-0.06-0.35-0.16-0.65-0.28-0.88c-0.12-0.23-0.27-0.45-0.46-0.65c-0.6-0.62-1.35-0.94-2.26-0.94s-1.66,0.31-2.26,0.94
			c-0.18,0.2-0.34,0.42-0.46,0.66c-0.12,0.24-0.21,0.54-0.28,0.88c-0.06,0.35-0.11,0.78-0.13,1.29c-0.02,0.51-0.03,1.14-0.03,1.89
			c0,0.75,0.01,1.38,0.03,1.88c0.02,0.5,0.06,0.93,0.13,1.29c0.06,0.36,0.16,0.65,0.28,0.88c0.12,0.23,0.27,0.45,0.46,0.65
			c0.28,0.3,0.62,0.53,1,0.7c0.38,0.17,0.8,0.26,1.26,0.26c0.45,0,0.87-0.09,1.26-0.26c0.38-0.17,0.72-0.41,1-0.7
			c0.18-0.2,0.34-0.41,0.46-0.65c0.12-0.23,0.21-0.52,0.28-0.87c0.06-0.35,0.11-0.78,0.13-1.29
			C252.6,156.77,252.62,156.14,252.62,155.38z"/>
		<path class="st3" d="M271.62,155.38c0,0.79-0.01,1.49-0.03,2.1c-0.02,0.6-0.08,1.14-0.18,1.62c-0.1,0.48-0.25,0.91-0.46,1.31
			c-0.21,0.4-0.49,0.78-0.86,1.15c-0.5,0.5-1.06,0.88-1.7,1.14c-0.64,0.26-1.38,0.39-2.21,0.39s-1.57-0.13-2.21-0.39
			c-0.64-0.26-1.21-0.64-1.7-1.14c-0.37-0.37-0.66-0.75-0.86-1.15c-0.21-0.4-0.36-0.83-0.46-1.31c-0.1-0.47-0.16-1.01-0.18-1.62
			c-0.02-0.6-0.03-1.3-0.03-2.1c0-0.79,0.01-1.49,0.03-2.1c0.02-0.6,0.08-1.14,0.18-1.62c0.1-0.47,0.25-0.91,0.46-1.31
			c0.21-0.4,0.49-0.78,0.86-1.15c0.5-0.5,1.06-0.88,1.7-1.14c0.64-0.26,1.38-0.39,2.21-0.39s1.57,0.13,2.21,0.39
			c0.64,0.26,1.21,0.64,1.7,1.14c0.37,0.37,0.66,0.75,0.86,1.15c0.21,0.4,0.36,0.83,0.46,1.31c0.1,0.48,0.16,1.02,0.18,1.62
			C271.61,153.89,271.62,154.59,271.62,155.38z M269.32,155.38c0-0.75-0.01-1.38-0.03-1.89c-0.02-0.51-0.06-0.94-0.13-1.3
			c-0.06-0.35-0.16-0.65-0.28-0.88s-0.27-0.45-0.46-0.65c-0.6-0.62-1.35-0.94-2.26-0.94s-1.66,0.31-2.26,0.94
			c-0.18,0.2-0.34,0.42-0.46,0.66c-0.12,0.24-0.21,0.54-0.28,0.88c-0.07,0.35-0.11,0.78-0.13,1.29c-0.02,0.51-0.03,1.14-0.03,1.89
			c0,0.75,0.01,1.38,0.03,1.88c0.02,0.5,0.06,0.93,0.13,1.29c0.06,0.36,0.16,0.65,0.28,0.88c0.12,0.23,0.27,0.45,0.46,0.65
			c0.28,0.3,0.62,0.53,1,0.7c0.38,0.17,0.8,0.26,1.26,0.26c0.45,0,0.87-0.09,1.26-0.26c0.38-0.17,0.72-0.41,1-0.7
			c0.18-0.2,0.34-0.41,0.46-0.65s0.21-0.52,0.28-0.87c0.07-0.35,0.11-0.78,0.13-1.29C269.31,156.77,269.32,156.14,269.32,155.38z"/>
		<path class="st3" d="M278.22,162.96v-15.15h2.3v13.09h7.3v2.06H278.22z"/>
		<path class="st3" d="M312.99,162.96v-10.13l-3.49,7.38h-1.7l-3.58-7.38v10.13h-2.3v-15.15h2.3l4.43,9.43l4.34-9.43h2.3v15.15H312.99z"/>
		<path class="st3" d="M331.12,162.96l-1.04-3.04h-5.98l-1.04,3.04h-2.45l5.55-15.15h1.85l5.55,15.15H331.12z M327.14,151.24l-2.36,6.72h4.66
			L327.14,151.24z"/>
		<path class="st3" d="M348.21,162.96l-7-10.66v10.66h-2.3v-15.15h2.11l7,10.64v-10.64h2.3v15.15H348.21z"/>
		<path class="st3" d="M366.17,162.96l-1.04-3.04h-5.98l-1.04,3.04h-2.45l5.55-15.15h1.85l5.55,15.15H366.17z M362.19,151.24l-2.36,6.72h4.66
			L362.19,151.24z"/>
		<path class="st3" d="M384.18,157.09c0,0.99-0.1,1.82-0.31,2.48c-0.21,0.66-0.56,1.26-1.05,1.8c-0.57,0.6-1.2,1.03-1.9,1.31
			c-0.7,0.28-1.46,0.41-2.27,0.41c-0.84,0-1.57-0.13-2.21-0.39c-0.64-0.26-1.21-0.64-1.7-1.14c-0.37-0.37-0.66-0.75-0.86-1.15
			c-0.21-0.4-0.36-0.83-0.46-1.31c-0.1-0.47-0.16-1.01-0.18-1.62c-0.02-0.6-0.03-1.3-0.03-2.1c0-0.79,0.01-1.49,0.03-2.1
			c0.02-0.6,0.08-1.14,0.18-1.62c0.1-0.47,0.25-0.91,0.46-1.31c0.21-0.4,0.49-0.78,0.86-1.15c0.5-0.5,1.06-0.88,1.7-1.14
			c0.64-0.26,1.38-0.39,2.21-0.39c0.8,0,1.51,0.13,2.15,0.37c0.64,0.25,1.19,0.58,1.65,1.01c0.46,0.43,0.83,0.92,1.12,1.49
			c0.28,0.57,0.47,1.17,0.57,1.81h-2.3c-0.2-0.84-0.57-1.49-1.11-1.95c-0.54-0.46-1.23-0.69-2.09-0.69c-0.91,0-1.66,0.31-2.26,0.94
			c-0.18,0.2-0.34,0.42-0.46,0.66c-0.12,0.24-0.21,0.54-0.28,0.88c-0.06,0.35-0.11,0.78-0.13,1.29c-0.02,0.51-0.03,1.14-0.03,1.89
			c0,0.75,0.01,1.38,0.03,1.9c0.02,0.51,0.06,0.94,0.13,1.29c0.06,0.35,0.16,0.64,0.28,0.88c0.12,0.24,0.27,0.46,0.46,0.66
			c0.6,0.62,1.35,0.94,2.26,0.94c0.5,0,0.96-0.09,1.39-0.28c0.43-0.18,0.8-0.45,1.1-0.81c0.28-0.33,0.48-0.68,0.59-1.06
			c0.11-0.38,0.16-0.82,0.16-1.32v-0.85h-3.23v-1.96h5.53V157.09z"/>
		<path class="st3" d="M390.75,162.96v-15.15h9.68v2.06h-7.38v4.43h6.3v2.04h-6.3v4.55h7.38v2.06H390.75z"/>
		<path class="st3" d="M417.82,162.96v-10.13l-3.49,7.38h-1.7l-3.58-7.38v10.13h-2.3v-15.15h2.3l4.43,9.43l4.34-9.43h2.3v15.15H417.82z"/>
		<path class="st3" d="M427.25,162.96v-15.15h9.68v2.06h-7.38v4.43h6.3v2.04h-6.3v4.55h7.38v2.06H427.25z"/>
		<path class="st3" d="M452.57,162.96l-7-10.66v10.66h-2.3v-15.15h2.11l7,10.64v-10.64h2.3v15.15H452.57z"/>
		<path class="st3" d="M466.96,149.87v13.09h-2.3v-13.09h-4.17v-2.06h10.64v2.06H466.96z"/>
	</g>
	<g>
		<path class="st1" d="M231.78,72.45h7.09L243,99.63l15.07-27.19h7.09l-10.49,52.6h-7.83l6.5-32.65l-10.94,20.91h-4.36l-2.36-21.06
			l-6.57,32.8h-7.83L231.78,72.45z"/>
		<path class="st1" d="M273.44,72.45h20.98l-1.4,7.02h-13.15l-3.1,15.59h11.3l-1.4,6.94h-11.3l-3.18,16.03h13.15l-1.4,7.02h-20.98
			L273.44,72.45z"/>
		<path class="st1" d="M301.15,72.45h7.09l4.14,27.19l15.07-27.19h7.09l-10.49,52.6h-7.83l6.5-32.65l-10.94,20.91h-4.36l-2.36-21.06
			l-6.57,32.8h-7.83L301.15,72.45z"/>
		<path class="st1" d="M342.81,72.45h11.67c2.12,0,3.88,0.23,5.28,0.7c1.4,0.47,2.57,1.29,3.51,2.48c1.28,1.62,1.92,3.72,1.92,6.28
			c0,0.64-0.04,1.37-0.11,2.18c-0.07,0.81-0.23,1.74-0.48,2.77c-0.39,2.07-0.85,3.78-1.37,5.13c-0.52,1.36-1.44,2.62-2.77,3.8
			c-0.84,0.79-1.82,1.4-2.95,1.85c0.49,0.2,0.95,0.47,1.37,0.81s0.75,0.71,1,1.11c0.59,0.84,0.98,1.63,1.18,2.36
			c0.2,0.74,0.3,1.6,0.3,2.59c0,0.79-0.04,1.63-0.11,2.51c-0.07,0.89-0.23,1.87-0.48,2.95c-0.35,1.68-0.7,3.13-1.07,4.36
			c-0.37,1.23-0.76,2.33-1.18,3.29c-0.42,0.96-0.89,1.78-1.4,2.47c-0.52,0.69-1.07,1.33-1.66,1.92c-1.33,1.18-2.8,1.98-4.4,2.4
			c-1.6,0.42-3.68,0.63-6.24,0.63h-12.48L342.81,72.45z M345.4,118.03c2.27,0,3.94-0.62,5.02-1.85c1.08-1.23,1.95-3.4,2.59-6.5
			c0.3-1.53,0.44-2.83,0.44-3.92c0-3.2-1.6-4.8-4.8-4.8h-3.69l-3.4,17.07H345.4z M349.61,94.32c2.07,0,3.64-0.58,4.73-1.74
			c1.08-1.16,1.9-3.02,2.44-5.58c0.3-1.23,0.44-2.37,0.44-3.4c0-1.38-0.31-2.41-0.92-3.1c-0.62-0.69-1.78-1.03-3.51-1.03h-3.55
			l-2.95,14.85H349.61z"/>
		<path class="st1" d="M375.76,72.45h20.98l-1.4,7.02h-13.15l-3.1,15.59h11.3l-1.4,6.94h-11.3l-3.18,16.03h13.15l-1.4,7.02h-20.98
			L375.76,72.45z"/>
		<path class="st1" d="M403.47,72.45h12.34c3.79,0,6.51,0.88,8.16,2.62c1.65,1.75,2.47,4.05,2.47,6.91c0,1.72-0.22,3.72-0.67,5.98
			c-0.44,2.32-0.95,4.25-1.51,5.8c-0.57,1.55-1.19,2.84-1.88,3.88c-0.69,1.04-1.47,1.87-2.33,2.51c-0.86,0.64-1.83,1.21-2.92,1.7
			l2.81,23.2h-7.83l-2.37-21.79h-4.58l-4.36,21.79h-7.83L403.47,72.45z M411.23,96.46c1.92,0,3.39-0.75,4.4-2.25
			c1.01-1.5,1.78-3.58,2.33-6.24c0.15-0.79,0.27-1.54,0.37-2.25c0.1-0.71,0.15-1.37,0.15-1.96c0-1.33-0.29-2.38-0.89-3.14
			c-0.59-0.76-1.67-1.14-3.25-1.14h-4.43l-3.4,16.99H411.23z"/>
		<path class="st1" d="M435.38,110.72c-0.15,0.79-0.26,1.47-0.33,2.03c-0.07,0.57-0.11,1.12-0.11,1.66c0,1.28,0.29,2.24,0.89,2.88
			c0.74,0.89,1.8,1.33,3.18,1.33c1.58,0,2.9-0.49,3.99-1.48c0.34-0.34,0.64-0.69,0.89-1.04c0.25-0.34,0.47-0.74,0.67-1.18
			c0.2-0.44,0.37-0.97,0.52-1.59c0.15-0.62,0.32-1.34,0.52-2.18c0.2-0.84,0.33-1.65,0.41-2.44c0.07-0.79,0.11-1.53,0.11-2.22
			c0-1.97-1.18-3.5-3.55-4.58l-4.88-2.36c-2.07-0.98-3.5-2.14-4.28-3.47c-0.79-1.33-1.18-2.93-1.18-4.8c0-0.99,0.04-1.93,0.11-2.84
			c0.07-0.91,0.23-1.88,0.48-2.92c0.44-2.22,1.03-4.16,1.77-5.84c0.74-1.67,1.7-3.08,2.88-4.21c1.13-1.13,2.45-2.02,3.95-2.66
			c1.5-0.64,3.36-0.96,5.58-0.96c2.22,0,3.98,0.27,5.28,0.81c1.3,0.54,2.48,1.33,3.51,2.36c0.59,0.59,1.08,1.44,1.48,2.55
			c0.39,1.11,0.59,2.38,0.59,3.81c0,1.53-0.17,3.3-0.52,5.32h-7.83c0.2-0.84,0.32-1.55,0.37-2.14c0.05-0.59,0.07-1.16,0.07-1.7
			c0-1.23-0.27-2.19-0.81-2.88c-0.25-0.3-0.58-0.55-1-0.78c-0.42-0.22-0.97-0.33-1.66-0.33c-1.43,0-2.59,0.44-3.47,1.33
			c-0.64,0.59-1.13,1.34-1.48,2.25c-0.34,0.91-0.64,1.93-0.89,3.07c-0.25,1.23-0.37,2.41-0.37,3.55c0,1.08,0.25,1.95,0.74,2.59
			c0.49,0.64,1.21,1.18,2.14,1.62l4.21,2c2.56,1.23,4.33,2.51,5.32,3.84c0.98,1.33,1.48,3.05,1.48,5.17c0,0.99-0.06,2.07-0.19,3.25
			c-0.12,1.18-0.31,2.41-0.55,3.69c-0.3,1.48-0.6,2.77-0.92,3.88c-0.32,1.11-0.67,2.09-1.04,2.95c-0.37,0.86-0.78,1.61-1.22,2.25
			c-0.44,0.64-0.96,1.23-1.55,1.77c-1.23,1.18-2.65,2.06-4.25,2.62c-1.6,0.57-3.63,0.85-6.1,0.85c-2.27,0-4.09-0.26-5.47-0.78
			c-1.38-0.52-2.56-1.29-3.55-2.33c-0.74-0.79-1.32-1.72-1.74-2.81c-0.42-1.08-0.63-2.29-0.63-3.62c0-0.84,0.05-1.66,0.15-2.48
			c0.1-0.81,0.25-1.76,0.44-2.84H435.38z"/>
	</g>
</g>
</svg>
