<svg id="Layer_1" data-name="Layer 1" xmlns="http://www.w3.org/2000/svg" viewBox="0 0 268.03 88"><defs><style>.cls-1{fill:#e1251b;}.cls-2{fill:#f2f2f2;}</style></defs><title>GB MEMBERS</title><path class="cls-1" d="M48,94A44,44,0,1,1,92,50,44.05,44.05,0,0,1,48,94Zm0-81.47A37.47,37.47,0,1,0,85.43,50,37.51,37.51,0,0,0,48,12.53Z" transform="translate(-3.97 -6)"/><path class="cls-1" d="M80.49,44.62a6.08,6.08,0,0,0-3.9-5.68c-1.52-.66-3.65-.95-7.13-.95H49.78a.39.39,0,0,0-.39.39v23a.39.39,0,0,0,.39.39H69.46c5,0,7.08-.45,8.83-1.95a5.84,5.84,0,0,0,2.2-4.6,5.7,5.7,0,0,0-3.16-5.51A5.38,5.38,0,0,0,80.49,44.62ZM70.55,56.38h-15V52.46H70.33c3.33,0,3.72,1.12,3.72,2C74.05,55.72,72.87,56.38,70.55,56.38Zm0-9.35h-15V43.4h15c1.61,0,3.5.44,3.5,1.67S73,47,70.55,47Z" transform="translate(-3.97 -6)"/><path class="cls-1" d="M26.52,61.78H45.21a.38.38,0,0,0,.38-.38V47.55a.38.38,0,0,0-.38-.38H25.42a.38.38,0,0,0-.38.38v4.52a.38.38,0,0,0,.38.38H39.37v3.91H26.52c-2.7,0-3.81-1.1-4.09-1.44l-.09-.1c-.36-.4-1.47-1.61-1.47-4.9a7.43,7.43,0,0,1,1.54-5l.07-.08a5.07,5.07,0,0,1,4-1.63H45.21a.38.38,0,0,0,.38-.38V38.38a.38.38,0,0,0-.38-.38H26.52C16.3,38,14.16,44.51,14.16,50,14.16,57.92,18.2,61.78,26.52,61.78Z" transform="translate(-3.97 -6)"/><g id="Layer_2" data-name="Layer 2"><polygon class="cls-1" points="268.03 20 111.03 20 101.03 67 258.03 67 268.03 20"/></g><path class="cls-2" d="M126.05,33.9h4l2.35,15.46L141,33.9h4l-6,29.91h-4.45l3.69-18.57L132.1,57.13h-2.48l-1.35-12-3.73,18.65h-4.46Z" transform="translate(-3.97 -6)"/><path class="cls-2" d="M149.73,33.9h11.93l-.79,4h-7.48l-1.76,8.87h6.42l-.8,3.94h-6.42L149,59.82h7.48l-.8,4H143.77Z" transform="translate(-3.97 -6)"/><path class="cls-2" d="M165.48,33.9h4l2.35,15.46,8.57-15.46h4l-6,29.91h-4.45l3.7-18.57-6.22,11.89h-2.47l-1.35-12L164,63.81h-4.45Z" transform="translate(-3.97 -6)"/><path class="cls-2" d="M189.17,33.9h6.64a9.81,9.81,0,0,1,3,.4,4.28,4.28,0,0,1,2,1.41,5.59,5.59,0,0,1,1.09,3.57c0,.37,0,.78-.06,1.24a12.52,12.52,0,0,1-.28,1.57,17.53,17.53,0,0,1-.77,2.92,5.72,5.72,0,0,1-1.58,2.17,5.37,5.37,0,0,1-1.68,1,2.91,2.91,0,0,1,1.35,1.09,4.53,4.53,0,0,1,.67,1.34,5.85,5.85,0,0,1,.16,1.47c0,.45,0,.93-.06,1.43a11.85,11.85,0,0,1-.27,1.68c-.2.95-.4,1.78-.61,2.48a16.66,16.66,0,0,1-.67,1.87,7.36,7.36,0,0,1-.8,1.4,10.07,10.07,0,0,1-.94,1.1,6.09,6.09,0,0,1-2.5,1.36,14.36,14.36,0,0,1-3.55.36h-7.1Zm1.47,25.92a3.62,3.62,0,0,0,2.86-1,8.42,8.42,0,0,0,1.47-3.7,11.73,11.73,0,0,0,.25-2.22,2.41,2.41,0,0,0-2.73-2.73h-2.1l-1.93,9.7ZM193,46.34a3.48,3.48,0,0,0,2.68-1,6.65,6.65,0,0,0,1.39-3.17,8.25,8.25,0,0,0,.25-1.93,2.6,2.6,0,0,0-.52-1.77,2.65,2.65,0,0,0-2-.59h-2l-1.68,8.45Z" transform="translate(-3.97 -6)"/><path class="cls-2" d="M207.9,33.9h11.93l-.8,4h-7.47l-1.77,8.87h6.43l-.8,3.94H209l-1.81,9.12h7.48l-.8,4H201.94Z" transform="translate(-3.97 -6)"/><path class="cls-2" d="M223.65,33.9h7q3.22,0,4.64,1.5a5.46,5.46,0,0,1,1.41,3.92,18.08,18.08,0,0,1-.38,3.4,21.55,21.55,0,0,1-.86,3.3,10.6,10.6,0,0,1-1.07,2.21,5.87,5.87,0,0,1-1.33,1.42,8.62,8.62,0,0,1-1.66,1L233,63.81h-4.45l-1.35-12.39h-2.6l-2.48,12.39h-4.45Zm4.41,13.65a2.8,2.8,0,0,0,2.5-1.28,9.8,9.8,0,0,0,1.33-3.55c.08-.44.15-.87.21-1.28a9.05,9.05,0,0,0,.08-1.11,2.85,2.85,0,0,0-.5-1.78,2.22,2.22,0,0,0-1.85-.66h-2.52l-1.93,9.66Z" transform="translate(-3.97 -6)"/><path class="cls-2" d="M241.8,55.66c-.09.45-.15.83-.19,1.16a7.54,7.54,0,0,0-.06.94,2.32,2.32,0,0,0,.5,1.64,2.23,2.23,0,0,0,1.81.75,3.23,3.23,0,0,0,2.27-.84,5.16,5.16,0,0,0,.5-.58,4.33,4.33,0,0,0,.38-.68,5,5,0,0,0,.29-.9l.29-1.24a10.25,10.25,0,0,0,.24-1.38q.06-.68.06-1.26a2.88,2.88,0,0,0-2-2.61l-2.77-1.34a5.32,5.32,0,0,1-2.43-2,5.22,5.22,0,0,1-.68-2.73c0-.56,0-1.09.07-1.61a10.78,10.78,0,0,1,.27-1.66,15.88,15.88,0,0,1,1-3.32A7.38,7.38,0,0,1,243,35.63a7.21,7.21,0,0,1,2.25-1.52,8.2,8.2,0,0,1,3.17-.54,8,8,0,0,1,3,.46,6.29,6.29,0,0,1,2,1.34,3.78,3.78,0,0,1,.84,1.45,6.3,6.3,0,0,1,.34,2.17,18,18,0,0,1-.3,3h-4.45a9.2,9.2,0,0,0,.21-1.22c0-.33,0-.65,0-1a2.58,2.58,0,0,0-.46-1.64,1.73,1.73,0,0,0-.57-.44,1.94,1.94,0,0,0-.94-.19,2.67,2.67,0,0,0-2,.75,3.22,3.22,0,0,0-.84,1.29,11.29,11.29,0,0,0-.51,1.74,10.25,10.25,0,0,0-.21,2,2.34,2.34,0,0,0,.42,1.47,3.21,3.21,0,0,0,1.22.93l2.39,1.13a8,8,0,0,1,3,2.19,4.79,4.79,0,0,1,.84,2.94,17.86,17.86,0,0,1-.11,1.84c-.07.68-.17,1.38-.31,2.11s-.35,1.57-.53,2.2a14.13,14.13,0,0,1-.59,1.68,7.27,7.27,0,0,1-.69,1.28,6,6,0,0,1-.88,1,6.67,6.67,0,0,1-2.42,1.49,10.56,10.56,0,0,1-3.46.48,8.89,8.89,0,0,1-3.11-.44,5.37,5.37,0,0,1-2-1.32,4.89,4.89,0,0,1-1-1.6,5.6,5.6,0,0,1-.36-2.06,13,13,0,0,1,.08-1.4c.06-.46.14-1,.26-1.62Z" transform="translate(-3.97 -6)"/></svg>