<svg xmlns="http://www.w3.org/2000/svg" xmlns:xlink="http://www.w3.org/1999/xlink" width="352px" height="548px" viewBox="0 0 650 1457.29"><defs><style>.cls-1{fill:none;}.cls-2{isolation:isolate;}.cls-3{fill:#82c6c3;}.cls-4{clip-path:url(#clip-path);}.cls-5{fill:#1c1918;opacity:0.1;}.cls-6{fill:#33343d;}.cls-7{fill:#705543;}.cls-8{fill:#543d31;}.cls-9{fill:#ddcea6;}.cls-10{fill:#ddbca6;}.cls-11{fill:#ffceb1;}.cls-12{fill:#cc211d;}.cls-13{fill:#e1251b;}.cls-14{fill:#f7ceb2;}.cls-15{fill:#222228;}.cls-16{fill:#84653c;}.cls-17{fill:#b57662;opacity:0.4;}.cls-18{fill:#d39484;}.cls-19{fill:#513a1e;}.cls-20{fill:#adadad;}.cls-21,.cls-23{fill:#fff;}.cls-21{fill-rule:evenodd;}.cls-22{mix-blend-mode:screen;}</style><clipPath id="clip-path" transform="translate(-75 -75)"><path class="cls-1" d="M725,400C725,220.51,579.49,75,400,75S75,220.51,75,400,220.51,725,400,725a323.55,323.55,0,0,0,155.73-39.68l50,49.3,103-50.83L725,568.72l-23.8-46.47A324.09,324.09,0,0,0,725,400Z"/></clipPath></defs><g class="cls-2"><g id="Layer_2" data-name="Layer 2"><circle class="cls-3" cx="325" cy="325" r="325"/></g><g id="Layer_3" data-name="Layer 3"><g class="cls-4"><path class="cls-5" d="M692.39,1504.07c0,15.59-122.32,28.22-268.86,28.22s-261.81-12.63-261.81-28.22,115.27-28.22,261.81-28.22S692.39,1488.49,692.39,1504.07Z" transform="translate(-75 -75)"/><polygon class="cls-6" points="424.98 1318.47 437.95 1396.41 468.21 1396.41 458.09 1311.63 424.98 1318.47"/><path class="cls-7" d="M552.38,1434.47s17.26,22.44,43.46,30.33,49.86,17.9,47.95,33.67c0,0-39,19.09-102.27-2.14V1503L500,1501.18V1446l34.51,2.42-2.56-5.46Z" transform="translate(-75 -75)"/><path class="cls-8" d="M569.05,1497.1c56.7,14.58,71.1-1.61,74.41-2.73a11,11,0,0,1,.33,4.1s-39,19.09-102.27-2.14V1503L500,1501.18v-11C514.81,1491.07,527.24,1486.35,569.05,1497.1Z" transform="translate(-75 -75)"/><polygon class="cls-6" points="280.2 1318.47 267.23 1396.41 236.97 1396.41 247.09 1311.63 280.2 1318.47"/><path class="cls-7" d="M302.8,1434.47s-17.26,22.44-43.46,30.33-52.74,17.9-50.82,33.67c0,0,41.87,19.09,105.14-2.14V1503l41.54-1.82V1446l-34.51,2.42,2.56-5.46Z" transform="translate(-75 -75)"/><path class="cls-8" d="M277.52,1500c-39.81,6.26-65.36-4.48-68.67-5.6a11,11,0,0,0-.33,4.1s41.87,19.09,105.14-2.14V1503l41.54-1.82V1487.3C340.37,1488.2,315.73,1494,277.52,1500Z" transform="translate(-75 -75)"/><path class="cls-9" d="M495,744.41l32.53,402.65L555.7,1422.7s-15.31,21.06-72.74,11.49l-30.16-289-37-237.38H386.29l-19.71,526.41s-24.89,19.14-70.83,1.91l9.19-677.62Z" transform="translate(-75 -75)"/><polygon class="cls-10" points="335.87 323.53 333.29 430.43 268.85 401.62 270.88 291.54 335.87 323.53"/><path class="cls-11" d="M626,506c.92,11,9.66,23.7,17.78,32.1-36.33,120.3-39.34,140.72-83,27.58-19.45,6.32-38.82,12.82-57.93,20.13,71.06,134.14,129.06,160.65,176-37,.21.17.63-.18.79-.29,9.68-6.56,13.53-22.31,16.14-31.27s5.78-14.22,8.19-20.5,8.67-16.11,1.37-18.57-9.12,22.59-14.47,17.89,17-42.1-2-40.53c-6.15.51-4.58,32.46-13.19,30s9.81-36.77-4.12-38.77c-8.42-1.21-7.75,42.53-11.22,36.59-4.44-7.6.41-27.79-6.33-35.76s-8.26,10.92-7.69,17.62c.41,4.91,1.51,28.12-3.69,32-6.42,4.79-5.21-2.15-6.35-6.92s-11.33-22-17.7-12.82S625,494.94,626,506Z" transform="translate(-75 -75)"/><path class="cls-12" d="M495.66,613,487,615.26,450.49,513.38c-14.29-39.84,31.72-75.59,65.73-50.41,17,12.62,33.87,38.61,47.58,85.95l14.63,45.14-8.93,1Z" transform="translate(-75 -75)"/><path class="cls-13" d="M494.38,453.63c-25.38-5.26-51-12-73.55-14.92.08.46-10-.93-10-.46,0,10.05-8.33,20.05-31.09,20.05s-35.27-7.65-35.27-17.7a14.31,14.31,0,0,1,.05-2.45c-37.14.31-65.4,4.45-84.77,8.68A32.27,32.27,0,0,0,235.38,486L304.56,770.7s15.36,11.39,68.66,13.56c75.46,3.08,122.83-18.13,122.83-18.13,12.38-97.08,18.59-288.36,18.59-288.36h0A25.42,25.42,0,0,0,494.38,453.63Z" transform="translate(-75 -75)"/><path class="cls-14" d="M357.2,132.27c-61.22,14-59.58,56-59.58,56s1.9,32.47,3.11,71.15c-5.67-7.8-15.25-11.05-25.08-6.85-20.84,8.92-5.44,74.57,26.24,68.89,1.36,18.33,3.15,32.61,5.51,37.55,8.89,18.68,48,47.14,82.7,51.58s78.25-18.67,78.25-59.58.54-192.38.54-192.38S458.57,109.15,357.2,132.27Z" transform="translate(-75 -75)"/><path class="cls-15" d="M376.54,256.32c0,8.92-4,16.15-8.87,16.15s-8.87-7.23-8.87-16.15,4-16.14,8.87-16.14S376.54,247.41,376.54,256.32Z" transform="translate(-75 -75)"/><path class="cls-15" d="M451.24,259.88c0,8.92-4,16.14-8.87,16.14s-8.87-7.22-8.87-16.14,4-16.14,8.87-16.14S451.24,251,451.24,259.88Z" transform="translate(-75 -75)"/><path class="cls-16" d="M391,219.42c-5.33.32-9.79.1-14,0s-8.07-.2-11.63,0a44.41,44.41,0,0,0-10.3,1.69c-3.59,1-7.24,2.93-12,5.4a17.24,17.24,0,0,1,1.44-7.79,20.49,20.49,0,0,1,2-3.57,21.64,21.64,0,0,1,2.75-3.16,22.08,22.08,0,0,1,7.21-4.56,26.4,26.4,0,0,1,8.23-1.78,30.23,30.23,0,0,1,15.3,3.36,29.33,29.33,0,0,1,6.26,4.32A21.75,21.75,0,0,1,391,219.42Z" transform="translate(-75 -75)"/><path class="cls-16" d="M427.45,219.42a16.76,16.76,0,0,1,3.36-6,22.45,22.45,0,0,1,5-4.39,21.74,21.74,0,0,1,13.76-3.3,19,19,0,0,1,7.47,2.32,18.62,18.62,0,0,1,5.75,5,17.81,17.81,0,0,1,1.8,3.16c.22.56.48,1.08.65,1.64s.31,1.13.45,1.69a15.6,15.6,0,0,1,0,6.9c-1.11-.54-2.07-1.1-3-1.63-.48-.25-.91-.51-1.35-.76s-.83-.5-1.27-.71a43.87,43.87,0,0,0-4.54-2.2,27.52,27.52,0,0,0-7.39-1.75,65.53,65.53,0,0,0-8.78-.19C435.93,219.36,432.19,219.61,427.45,219.42Z" transform="translate(-75 -75)"/><path class="cls-17" d="M278.47,263.89c10.87-5.5,20.48,12,20.92,30.67-8.89-1.33-10.39,9-5.44,16.34C276.3,314.64,266.94,269.73,278.47,263.89Z" transform="translate(-75 -75)"/><path class="cls-18" d="M414.56,239.32a106.57,106.57,0,0,1,5.63,15.49c.77,2.63,1.47,5.29,2.16,7.95s1.27,5.34,1.85,8,1.08,5.38,1.61,8.07.92,5.4,1.38,8.1q1.29,8.13,2.15,16.3l.1.94-.77.37c-1.65.79-3.32,1.55-5,2.31s-3.32,1.54-5,2.27c-3.35,1.49-6.71,2.95-10.12,4.33,3.1-2,6.25-3.85,9.42-5.71,1.57-.94,3.17-1.83,4.76-2.75s3.18-1.82,4.79-2.7l-.67,1.31c-.52-2.69-1-5.37-1.5-8.06s-1-5.36-1.45-8.05c-1-5.36-1.91-10.74-2.94-16.09-.46-2.68-1-5.36-1.47-8s-1-5.36-1.54-8C416.91,250,415.87,244.65,414.56,239.32Z" transform="translate(-75 -75)"/><path class="cls-14" d="M150.58,752a26.35,26.35,0,0,0-4.77,8.32c-6.94,19.89-33.26,97.36-25,105.39,0,0,1,7.12,10.22,8.22,0,0,1.37,9.54,12.33,7.12,0,0,.92,6.87,4,10.32,4.85,5.36,16,1.69,16.12-22.68,0,0,2.9,7.55,10.4,10.49,10.19,4,5.38-10.66,5.38-10.66s-.5-13.8-2.54-32.53-8-22.64-8-22.64l39.87-129.59Z" transform="translate(-75 -75)"/><path class="cls-11" d="M150.28,815H169.2c-.08-.26-.15-.52-.24-.78l-.58-.6c22.73-42.4,96.13-242.08,96.13-242.08l-56.26-14.32s-60.81,202.37-73.13,239.93c-2.7.26,2.14,2.55-.32,2.93Z" transform="translate(-75 -75)"/><path class="cls-12" d="M196.41,588.06l-8.31-3.24,29.87-104c11.68-40.68,69.91-42.81,82.8-2.5,6.46,20.21,4.93,51.13-11.61,97.56L274.66,621l-7.8-4.44Z" transform="translate(-75 -75)"/><path class="cls-18" d="M366.62,338.48c6.06,2.19,12.16,4.08,18.31,5.72A156.8,156.8,0,0,0,403.55,348c3.12.48,6.27.76,9.42,1s6.3.21,9.46.17l2.37-.09,2.37-.19c.79,0,1.57-.13,2.36-.22s1.58-.16,2.36-.29c3.16-.4,6.27-1.1,9.42-1.82a52.57,52.57,0,0,1-9.1,3.39,62.18,62.18,0,0,1-9.6,1.77,74.26,74.26,0,0,1-9.78.38,93.37,93.37,0,0,1-9.74-.82c-3.22-.49-6.42-1.09-9.58-1.85s-6.27-1.68-9.33-2.77A87.3,87.3,0,0,1,366.62,338.48Z" transform="translate(-75 -75)"/><path class="cls-19" d="M470,170.14c12.69-1.67,36.19-27,27-53.44,0,0-2.3,14.37-22.41,14.37,0,0,11.5-4.6,13.79-11.49,0,0-14.36,8.61-48.26-12.07-3-1.86-6.5-3.81-10.27-5.75a86.83,86.83,0,0,0-15.69-7.12c-38.7-15.27-93.89-20.1-112.95,52.21a25.51,25.51,0,0,0-1.06,4.07s-26.95-2.93-26.95,42.77c0,17.27,6.45,35.15,14.8,57.11,8.2,1.17,13.36,12.41,13.36,12.41l3.83,29.53c0,8.05-.5,21.54-3.34,28.74-4.22,10.68-10,60.67,55.53,85.95s125.83-1.15,110.89-86.18c0,0,1.31,22.92-9,20.05s-.65-32.53-50.1-27c-15.62-2-36.76-14.64-54.05,15-13.54,23.2-38.37,7.28-40.29-51.43V262.93c0-.87,0-1.71.07-2.59l-.07.19V220.64s18.36-15.81,20.53-38.17c120.3,46.27,157.08-12.33,157.08-12.33S483.92,173,470,170.14ZM367.19,333.89c25.71,7.82,44.59-2.68,44.59-2.68,15,11.71,34.7,10.72,34.7,10.72,2.87,3.45,10.92,29.3-16.66,39.64s-20.69-20.11-20.69-20.11l-10.91-1.72s4.24,23.62-20.11,21.26C342.49,377.55,367.19,333.89,367.19,333.89Z" transform="translate(-75 -75)"/><path class="cls-7" d="M470.26,784c16.49-4,24.48-9.36,24.67-9.43,4.82-1.82,4.18,3.48,4.72,9.07.7,7.39-.43,11.34-4.77,12.87-.79.28-4.61,4.79-21,9.3Q472,794.9,470.26,784Z" transform="translate(-75 -75)"/><path class="cls-7" d="M352.17,790.23c18.33,1.92,38.38,2.28,60.1,1.64A277.1,277.1,0,0,0,456.66,787c-.42,7.57.45,15.08,1.56,22.58a264.2,264.2,0,0,1-45.59,5.3q-10.62.31-20.75.12a387.82,387.82,0,0,1-42.17-2.86A121.86,121.86,0,0,0,352.17,790.23Z" transform="translate(-75 -75)"/><path class="cls-7" d="M298.46,788.48c.94-5.55,1.54-10.47,6.35-8.64a174.87,174.87,0,0,0,35.36,8.9c-.45,7.23-1.4,14.4-2.37,21.56a176.8,176.8,0,0,1-37.1-10.44C297.35,798.47,297.51,794.09,298.46,788.48Z" transform="translate(-75 -75)"/><path class="cls-20" d="M382.28,788.68l-.55,29.41,42.62-2.54.51-27.3Zm7.12,4.91,28.15-.28-.34,18L389,813Z" transform="translate(-75 -75)"/><polygon class="cls-21" points="250.27 518.51 316.62 418.88 355.73 476.52 337.81 476.53 316.54 445.57 278.26 503.66 354.64 503.82 349.76 496.69 312.44 496.69 322.34 482 358.99 482.12 381.71 518.57 250.27 518.51"/><g class="cls-22"><path class="cls-23" d="M349.84,629.25a3.94,3.94,0,0,0-2.53-3.68,11.8,11.8,0,0,0-4.62-.62H324.53a.25.25,0,0,0-.25.25v14.93a.25.25,0,0,0,.25.25h18.16c3.25,0,4.59-.29,5.72-1.26a3.79,3.79,0,0,0,1.43-3,3.7,3.7,0,0,0-2-3.58A3.49,3.49,0,0,0,349.84,629.25Zm-6.45,7.63h-15.1v-2.55h15c2.16,0,2.41.73,2.41,1.28C345.66,636.45,344.9,636.88,343.39,636.88Zm0-6.07h-15.1v-2.35h15.1c1.05,0,2.27.28,2.27,1.08S345,630.81,343.39,630.81Z" transform="translate(-75 -75)"/><path class="cls-23" d="M378,622.09h3.63a.25.25,0,0,0,.21-.11l2.19-3.17h13l2.18,3.17a.25.25,0,0,0,.21.11H403a.25.25,0,0,0,.22-.13.24.24,0,0,0,0-.26l-10.45-15.24a.23.23,0,0,0-.2-.11h-4.1a.26.26,0,0,0-.21.11L377.82,621.7a.24.24,0,0,0,0,.26A.25.25,0,0,0,378,622.09Zm12.54-12.65,4,5.85h-8Z" transform="translate(-75 -75)"/><path class="cls-23" d="M351.63,640.64h3.63a.26.26,0,0,0,.21-.11l2.18-3.17h13l2.18,3.17a.23.23,0,0,0,.2.11h3.63a.24.24,0,0,0,.21-.39L366.39,625a.25.25,0,0,0-.21-.11h-4.09a.25.25,0,0,0-.21.11l-10.46,15.24a.24.24,0,0,0,0,.26A.25.25,0,0,0,351.63,640.64ZM364.17,628l4,5.85h-8Z" transform="translate(-75 -75)"/><path class="cls-23" d="M436.36,640.64H440a.26.26,0,0,0,.21-.11l2.18-3.17h13l2.18,3.17a.23.23,0,0,0,.2.11h3.63a.24.24,0,0,0,.21-.39L451.12,625a.25.25,0,0,0-.21-.11h-4.09a.26.26,0,0,0-.21.11l-10.46,15.24a.24.24,0,0,0,0,.26A.25.25,0,0,0,436.36,640.64ZM448.9,628l4,5.85h-8Z" transform="translate(-75 -75)"/><path class="cls-23" d="M332.44,622.09h17a.26.26,0,0,0,.26-.25v-9.18a.26.26,0,0,0-.26-.25H331.71a.25.25,0,0,0-.25.25v3a.25.25,0,0,0,.25.25h13.91v2.59H332.44a3.39,3.39,0,0,1-2.71-1l-.06-.07a4.39,4.39,0,0,1-1-3.25,4.91,4.91,0,0,1,1-3.31l0,0a3.38,3.38,0,0,1,2.68-1.08h17a.26.26,0,0,0,.26-.25v-2.95a.26.26,0,0,0-.26-.25h-17c-6.77,0-8.19,4.31-8.19,7.93C324.25,619.53,326.93,622.09,332.44,622.09Z" transform="translate(-75 -75)"/><path class="cls-23" d="M408.48,610.91a3.39,3.39,0,0,1,2.68-1.07h17a.26.26,0,0,0,.26-.25v-2.93a.26.26,0,0,0-.26-.26h-17c-6.77,0-8.19,4.3-8.19,7.9,0,5.23,2.68,7.78,8.19,7.78h17a.26.26,0,0,0,.26-.25v-3.08a.26.26,0,0,0-.26-.25h-17a3.4,3.4,0,0,1-2.71-.94l-.06-.07c-.24-.26-1-1.06-1-3.23a4.83,4.83,0,0,1,1-3.29Z" transform="translate(-75 -75)"/><path class="cls-23" d="M461.39,606.33H444.34c-6.76,0-8.18,4.32-8.18,7.93,0,5.27,2.68,7.83,8.18,7.83h17.05a.25.25,0,0,0,.25-.25v-3.09a.26.26,0,0,0-.25-.26H444.34a3.35,3.35,0,0,1-2.7-.94l-.06-.07a3.4,3.4,0,0,1-.79-1.54H461.3a.26.26,0,0,0,.26-.26v-2.94a.26.26,0,0,0-.26-.25H440.82a3.73,3.73,0,0,1,.8-1.57l.05-.06a3.36,3.36,0,0,1,2.67-1.07h17.05a.26.26,0,0,0,.25-.26v-2.95A.25.25,0,0,0,461.39,606.33Z" transform="translate(-75 -75)"/><path class="cls-23" d="M376.81,621.71l-3.35-5.78a4.69,4.69,0,0,0,3.22-4.71c0-1.83-1.29-4.93-6.16-4.93h-19a.25.25,0,0,0-.25.25v15.3a.25.25,0,0,0,.25.25h3.54a.25.25,0,0,0,.25-.25v-5.39h14l3,5.51a.25.25,0,0,0,.22.13h4a.26.26,0,0,0,.22-.13A.28.28,0,0,0,376.81,621.71ZM369.7,613H355.33v-3.16H369.7c1.92,0,3,.56,3,1.58C372.68,612.17,372.33,613,369.7,613Z" transform="translate(-75 -75)"/><path class="cls-23" d="M405.08,640.35l-3.34-5.79a4.69,4.69,0,0,0,3.22-4.71c0-1.83-1.3-4.93-6.16-4.93h-19a.25.25,0,0,0-.25.25v15.3a.26.26,0,0,0,.25.26h3.54a.26.26,0,0,0,.25-.26v-5.38h14l3,5.5a.24.24,0,0,0,.22.13h4a.22.22,0,0,0,.21-.12A.23.23,0,0,0,405.08,640.35Zm-7.1-8.74H383.61v-3.16H398c1.92,0,3,.56,3,1.57C401,630.8,400.61,631.61,398,631.61Z" transform="translate(-75 -75)"/><path class="cls-23" d="M433.38,640.35,430,634.56a4.68,4.68,0,0,0,3.23-4.71c0-1.83-1.3-4.93-6.16-4.93h-19a.25.25,0,0,0-.25.25v15.3a.26.26,0,0,0,.25.26h3.54a.26.26,0,0,0,.25-.26v-5.38h14l3,5.5a.25.25,0,0,0,.22.13h4a.25.25,0,0,0,.22-.12A.28.28,0,0,0,433.38,640.35Zm-7.1-8.74H411.9v-3.16h14.38c1.92,0,3,.56,3,1.57C429.26,630.8,428.9,631.61,426.28,631.61Z" transform="translate(-75 -75)"/><rect class="cls-23" x="354.98" y="531.31" width="4.64" height="15.78" rx="0.25"/></g></g></g></g></svg>
